<?xml version="1.0" encoding="UTF-8" standalone="no"?>
<!-- Created with Inkscape (http://www.inkscape.org/) -->

<svg
   width="31.205931mm"
   height="59.26482mm"
   viewBox="0 0 31.205931 59.26482"
   version="1.1"
   id="svg1"
   xmlns="http://www.w3.org/2000/svg"
   xmlns:svg="http://www.w3.org/2000/svg">
  <defs
     id="defs1" />
  <g
     id="layer1"
     transform="translate(-66.238836,-76.629831)">
    <path
       id="path6"
       style="fill:#ff00ff;stroke-width:0.264583"
       d="m 211.25582,279.72338 1.51361,5.63841 a 31.995731,27.632675 0 0 1 16.06568,23.96443 31.995731,27.632675 0 0 1 -0.22634,3.28042 l 4.10776,3.10886 a 36.649654,30.977686 0 0 0 1.0635,-7.4073 36.649654,30.977686 0 0 0 -22.52421,-28.58482 z m -32.72616,1.89291 a 36.649654,30.977686 0 0 0 -18.04903,26.69191 36.649654,30.977686 0 0 0 2.74247,11.75742 l 3.15174,-2.2934 a 31.995731,27.632675 0 0 1 -1.53117,-8.446 31.995731,27.632675 0 0 1 14.86059,-23.33604 z m 36.30166,50.5597 a 31.995731,27.632675 0 0 1 -17.99167,4.78265 31.995731,27.632675 0 0 1 -15.57579,-3.49487 l -2.36213,1.71824 a 36.649654,30.977686 0 0 0 18.22886,4.10362 36.649654,30.977686 0 0 0 20.26646,-5.16764 z" />
  </g>
</svg>
