<?xml version="1.0" encoding="UTF-8" standalone="no"?>
<!DOCTYPE svg PUBLIC "-//W3C//DTD SVG 1.1//EN" "http://www.w3.org/Graphics/SVG/1.1/DTD/svg11.dtd">
<svg width="100%" height="100%" viewBox="0 0 917 535" version="1.1" xmlns="http://www.w3.org/2000/svg" xmlns:xlink="http://www.w3.org/1999/xlink" xml:space="preserve" xmlns:serif="http://www.serif.com/" style="fill-rule:evenodd;clip-rule:evenodd;stroke-linejoin:round;stroke-miterlimit:2;">
    <g id="Artboard1" transform="matrix(1.123791,0,0,0.873712,-824.583772,-228.670075)">
        <path d="M1534.132,266.347C1536.051,265.745 1538.048,266.842 1539.037,269.041C1540.026,271.241 1539.769,274.015 1538.407,275.854C1486.28,346.218 1256.618,656.227 1241.21,677.026L1239.266,678.56C1215.755,687.625 832.317,835.458 749.458,867.404C747.534,868.146 745.462,867.138 744.402,864.944C743.341,862.75 743.555,859.914 744.924,858.024C779.255,810.588 885.805,663.366 967.071,551.08C1032.356,460.874 1116.755,397.244 1209.844,368.05C1328.623,330.798 1485.826,281.496 1534.132,266.347Z" style="fill:url(#_Linear1);"/>
        <path d="M1534.132,266.347C1536.051,265.745 1538.048,266.842 1539.037,269.041C1540.026,271.241 1539.769,274.015 1538.407,275.854C1486.28,346.218 1256.618,656.227 1241.21,677.026L1239.266,678.56C1215.755,687.625 832.317,835.458 749.458,867.404C747.534,868.146 745.462,867.138 744.402,864.944C743.341,862.75 743.555,859.914 744.924,858.024C779.255,810.588 885.805,663.366 967.071,551.08C1032.356,460.874 1116.755,397.244 1209.844,368.05C1328.623,330.798 1485.826,281.496 1534.132,266.347Z" style="fill:url(#_Linear2);"/>
    </g>
    <defs>
        <linearGradient id="_Linear1" x1="0" y1="0" x2="1" y2="0" gradientUnits="userSpaceOnUse" gradientTransform="matrix(815.124039,0,0,611.737244,733.751849,567.591256)"><stop offset="0" style="stop-color:white;stop-opacity:1"/><stop offset="0.03" style="stop-color:rgb(235,235,235);stop-opacity:1"/><stop offset="0.06" style="stop-color:rgb(227,227,227);stop-opacity:1"/><stop offset="0.08" style="stop-color:rgb(220,220,220);stop-opacity:1"/><stop offset="1" style="stop-color:rgb(41,41,41);stop-opacity:1"/></linearGradient>
        <linearGradient id="_Linear2" x1="0" y1="0" x2="1" y2="0" gradientUnits="userSpaceOnUse" gradientTransform="matrix(815.124039,0,0,611.737244,733.751849,567.591256)"><stop offset="0" style="stop-color:white;stop-opacity:1"/><stop offset="0" style="stop-color:rgb(220,220,220);stop-opacity:1"/><stop offset="0.28" style="stop-color:rgb(227,227,227);stop-opacity:1"/><stop offset="1" style="stop-color:rgb(41,41,41);stop-opacity:1"/></linearGradient>
    </defs>
</svg>
