<?xml version="1.0" encoding="UTF-8" standalone="no"?>
<!-- Created with Inkscape (http://www.inkscape.org/) -->

<svg
   width="31.205933mm"
   height="59.26482mm"
   viewBox="0 0 31.205933 59.26482"
   version="1.1"
   id="svg1"
   sodipodi:docname="LeftInnerWall.svg"
   inkscape:version="1.4.2 (f4327f4, 2025-05-13)"
   inkscape:export-filename="RightInnerWall.svg"
   inkscape:export-xdpi="96"
   inkscape:export-ydpi="96"
   xmlns:inkscape="http://www.inkscape.org/namespaces/inkscape"
   xmlns:sodipodi="http://sodipodi.sourceforge.net/DTD/sodipodi-0.dtd"
   xmlns="http://www.w3.org/2000/svg"
   xmlns:svg="http://www.w3.org/2000/svg">
  <sodipodi:namedview
     id="namedview1"
     pagecolor="#ffffff"
     bordercolor="#000000"
     borderopacity="0.25"
     inkscape:showpageshadow="2"
     inkscape:pageopacity="0.0"
     inkscape:pagecheckerboard="0"
     inkscape:deskcolor="#d1d1d1"
     inkscape:document-units="mm"
     inkscape:zoom="0.90962656"
     inkscape:cx="423.80029"
     inkscape:cy="374.32944"
     inkscape:window-width="1920"
     inkscape:window-height="1017"
     inkscape:window-x="-8"
     inkscape:window-y="-8"
     inkscape:window-maximized="1"
     inkscape:current-layer="layer1" />
  <defs
     id="defs1" />
  <g
     id="layer1"
     transform="translate(-66.238836,-76.629831)">
    <path
       id="rect1"
       style="stroke-width:0.264583"
       d="m 56.732322,71.188053 c 0,0 7.096836,-0.500532 10.651792,-0.543366 3.370447,-0.04061 6.759642,-0.112002 10.108425,0.271683 3.600204,0.412491 7.109066,0.596362 10.651791,1.358413 4.012767,0.863158 7.987118,1.767257 12.0102,2.580986 3.53516,0.715038 7.14941,1.991344 10.6518,2.852668 3.7998,0.934465 7.48993,1.45864 11.19515,2.716827 3.76039,1.276918 7.75251,2.910599 11.19516,4.890288 3.1888,1.833713 6.34406,4.06778 8.47833,7.06375 1.65144,2.318192 2.42667,5.202775 3.02247,7.985988 0.67218,3.13999 0.38488,6.41073 0.57732,9.61609 0.19244,3.20536 0.38489,6.41073 0.57733,9.61609 0.19244,3.20536 0.38489,6.41073 0.57733,9.61609 0.19244,3.20536 0.38488,6.41072 0.57732,9.61608 0.19244,3.20536 0.38489,6.41073 0.57733,9.61609 0.19244,3.20536 0.38488,6.41073 0.57732,9.61609 0.19244,3.20536 0.57733,9.61609 0.57733,9.61609 l -10.69216,-73.232421 -19.38601,-8.84363 -26.753033,-6.93522 z" />
    <path
       id="rect2"
       style="fill:#008000;stroke-width:0.264583"
       d="m 56.73244,71.188303 v 14.527795 c 17.935422,6.048655 22.542639,24.765612 23.122102,40.539642 0.903064,-5.30201 3.518498,-11.56911 3.427181,-15.85794 -0.145985,-6.8564 -11.082527,-21.258655 -11.082527,-21.258655 0,0 -8.343978,-5.448314 -5.908684,-10.894425 2.202507,-4.925524 14.806849,4.347021 14.806849,4.347021 0,0 14.517976,13.507513 16.164904,23.092649 0.625079,3.63796 -7.222119,38.22917 -8.777896,41.21361 L 118.66044,85.601893 Z"
       sodipodi:nodetypes="cccscscsccc" />
    <path
       id="rect3"
       style="fill:#aa4400;stroke-width:0.264583"
       d="m 118.66044,85.601893 -15.08797,30.648257 -15.087963,30.64774 0.362251,20.62252 17.193782,19.41225 21.34909,-9.62732 0.48317,-21.80451 19.28461,1.6e-4 c -1.14066,-21.84864 -3.68297,-49.79047 -9.11107,-61.055709 z"
       sodipodi:nodetypes="cccccccccc" />
    <path
       id="rect4"
       style="fill:#aa4400;stroke-width:0.264583"
       d="m 66.238838,190.26601 c 4.730555,5.62182 10.489492,-0.27424 16.968297,7.61002 l 6.581643,16.86546 -18.613708,-6.47881 c -4.422041,-3.22226 -0.205676,-12.30629 -4.936232,-17.99667 z"
       sodipodi:nodetypes="ccccc" />
    <path
       id="rect4-8"
       style="fill:#aa4400;stroke-width:0.264583"
       d="m 66.994181,190.67324 c -5.667113,4.6762 0.173217,10.49165 -7.773065,16.89423 l -16.928057,6.41893 6.657752,-18.55046 c 3.264693,-4.3908 12.3077,-0.0872 18.04337,-4.7627 z"
       sodipodi:nodetypes="ccccc" />
    <path
       id="rect5"
       style="fill:#decd87;stroke-width:0.264583"
       d="m 114.23244,213.04799 c 0,0 4.84515,-1.8334 4.65393,-0.29087 -1.73929,14.03071 -0.0431,25.06181 10.7622,38.10401 3.61121,4.35878 -23.85137,0 -23.85137,0 8.04741,-9.69568 10.85916,-24.04528 8.43524,-37.81314 z"
       sodipodi:nodetypes="csscc" />
    <path
       id="rect6"
       style="fill:#decd87;stroke-width:0.264583"
       d="m 114.81417,266.56812 v 59.04667 H 36.570068 c 0,0 78.583892,-58.919 78.244102,-59.04667 z"
       sodipodi:nodetypes="cccc" />
    <path
       id="path6"
       style="fill:#ff00ff;stroke-width:0.264583"
       d="M 211.25582 279.72338 L 212.76943 285.36179 A 31.995731 27.632675 0 0 1 228.83511 309.32622 A 31.995731 27.632675 0 0 1 228.60877 312.60664 L 232.71653 315.7155 A 36.649654 30.977686 0 0 0 233.78003 308.3082 A 36.649654 30.977686 0 0 0 211.25582 279.72338 z M 178.52966 281.61629 A 36.649654 30.977686 0 0 0 160.48063 308.3082 A 36.649654 30.977686 0 0 0 163.2231 320.06562 L 166.37484 317.77222 A 31.995731 27.632675 0 0 1 164.84367 309.32622 A 31.995731 27.632675 0 0 1 179.70426 285.99018 L 178.52966 281.61629 z M 214.83132 332.17599 A 31.995731 27.632675 0 0 1 196.83965 336.95864 A 31.995731 27.632675 0 0 1 181.26386 333.46377 L 178.90173 335.18201 A 36.649654 30.977686 0 0 0 197.13059 339.28563 A 36.649654 30.977686 0 0 0 217.39705 334.11799 L 214.83132 332.17599 z " />
  </g>
</svg>
