<?xml version="1.0" encoding="UTF-8" standalone="no"?>
<!-- Created with Inkscape (http://www.inkscape.org/) -->

<svg
   width="31.205933mm"
   height="59.26482mm"
   viewBox="0 0 31.205933 59.26482"
   version="1.1"
   id="svg1"
   xmlns="http://www.w3.org/2000/svg"
   xmlns:svg="http://www.w3.org/2000/svg">
  <defs
     id="defs1" />
  <g
     id="layer1"
     transform="translate(-66.238836,-76.629831)">
    <path
       id="rect1"
       style="stroke-width:0.264583"
       d="m 56.732322,71.188053 c 0,0 7.096836,-0.500532 10.651792,-0.543366 3.370447,-0.04061 6.759642,-0.112002 10.108425,0.271683 3.600204,0.412491 7.109066,0.596362 10.651791,1.358413 4.012767,0.863158 7.987118,1.767257 12.0102,2.580986 3.53516,0.715038 7.14941,1.991344 10.6518,2.852668 3.7998,0.934465 7.48993,1.45864 11.19515,2.716827 3.76039,1.276918 7.75251,2.910599 11.19516,4.890288 3.1888,1.833713 6.34406,4.06778 8.47833,7.06375 1.65144,2.318192 2.42667,5.202775 3.02247,7.985988 0.67218,3.13999 0.38488,6.41073 0.57732,9.61609 0.19244,3.20536 0.38489,6.41073 0.57733,9.61609 0.19244,3.20536 0.38489,6.41073 0.57733,9.61609 0.19244,3.20536 0.38488,6.41072 0.57732,9.61608 0.19244,3.20536 0.38489,6.41073 0.57733,9.61609 0.19244,3.20536 0.38488,6.41073 0.57732,9.61609 0.19244,3.20536 0.57733,9.61609 0.57733,9.61609 l -10.69216,-73.232421 -19.38601,-8.84363 -26.753033,-6.93522 z" />
    <path
       id="rect2"
       style="fill:#008000;stroke-width:0.264583"
       d="M 56.732322,71.188053 118.66055,85.601859 79.760772,135.89465 c 0.881855,-16.74993 -1.2248,-42.825563 -23.02845,-50.178763 z" />
    <path
       id="rect3"
       style="fill:#ffd5d5;stroke-width:0.264583"
       d="m 66.290577,78.244616 c -1.069784,-5.361829 14.806707,4.346922 14.806707,4.346922 0,0 14.518191,13.507898 16.165119,23.093032 1.646928,9.58514 -8.40256,18.44606 -8.40256,18.44606 l -9.099071,11.76402 c 0,0 -0.809195,-4.33683 0.09386,-9.63885 0.90306,-5.30202 3.518375,-11.56921 3.427058,-15.85805 -0.145985,-6.8564 -11.082669,-21.25847 -11.082669,-21.25847 0,0 -4.741168,-5.044174 -5.908449,-10.894664 z" />
  </g>
</svg>
