<?xml version="1.0" encoding="UTF-8" standalone="no"?>
<!-- Created with Inkscape (http://www.inkscape.org/) -->

<svg
   width="31.205931mm"
   height="59.26482mm"
   viewBox="0 0 31.205931 59.26482"
   version="1.1"
   id="svg1"
   sodipodi:docname="PointHoleFire.svg"
   inkscape:export-filename="PointHoleFire.svg"
   inkscape:export-xdpi="96"
   inkscape:export-ydpi="96"
   inkscape:version="1.4.2 (f4327f4, 2025-05-13)"
   xmlns:inkscape="http://www.inkscape.org/namespaces/inkscape"
   xmlns:sodipodi="http://sodipodi.sourceforge.net/DTD/sodipodi-0.dtd"
   xmlns="http://www.w3.org/2000/svg"
   xmlns:svg="http://www.w3.org/2000/svg">
  <sodipodi:namedview
     id="namedview1"
     pagecolor="#ffffff"
     bordercolor="#000000"
     borderopacity="0.25"
     inkscape:showpageshadow="2"
     inkscape:pageopacity="0.0"
     inkscape:pagecheckerboard="0"
     inkscape:deskcolor="#d1d1d1"
     inkscape:document-units="mm"
     showgrid="false"
     inkscape:zoom="1.2864062"
     inkscape:cx="58.690637"
     inkscape:cy="-34.592495"
     inkscape:window-width="1920"
     inkscape:window-height="1017"
     inkscape:window-x="-8"
     inkscape:window-y="-8"
     inkscape:window-maximized="1"
     inkscape:current-layer="svg1" />
  <defs
     id="defs1" />
  <g
     id="layer1"
     transform="translate(-66.238836,-76.629831)">
    <path
       id="rect1"
       style="stroke-width:0.264583"
       d="M 72.446209 70.621412 C 70.759007 70.596376 69.069209 70.624362 67.383986 70.644667 C 63.82903 70.687501 56.73244 71.188303 56.73244 71.188303 L 91.907553 78.666399 L 118.66044 85.601893 L 138.04634 94.445281 L 143.37883 130.96657 L 146.53471 130.96657 L 146.42929 129.2137 C 146.23685 126.00834 146.0445 122.80259 145.85206 119.59723 C 145.65962 116.39187 145.46728 113.18664 145.27484 109.98128 C 145.0824 106.77592 145.36979 103.50532 144.69761 100.36533 C 144.10181 97.58212 143.3265 94.697449 141.67506 92.379257 C 139.54079 89.383287 136.38531 87.149319 133.19651 85.315606 C 129.75386 83.335917 125.76171 81.702383 122.00132 80.425465 C 118.2961 79.167278 114.60594 78.642783 110.80614 77.708318 C 107.30375 76.846994 103.68976 75.570817 100.1546 74.855779 C 96.131513 74.04205 92.157243 73.137699 88.144476 72.274541 C 84.601751 71.51249 81.092617 71.328976 77.492413 70.916485 C 75.818021 70.724642 74.133412 70.646449 72.446209 70.621412 z " />
    <path
       id="rect2"
       style="fill:#008000;stroke-width:0.264583"
       d="m 56.73244,71.188303 v 14.527795 c 17.935422,6.048655 22.542639,24.765612 23.122102,40.539642 0.903064,-5.30201 3.518498,-11.56911 3.427181,-15.85794 -0.145985,-6.8564 -11.082527,-21.258655 -11.082527,-21.258655 0,0 -8.343978,-5.448314 -5.908684,-10.894425 2.202507,-4.925524 14.806849,4.347021 14.806849,4.347021 0,0 14.517976,13.507513 16.164904,23.092649 0.625079,3.63796 -7.222119,38.22917 -8.777896,41.21361 L 118.66044,85.601893 Z" />
  </g>
</svg>
