<?xml version="1.0" encoding="UTF-8" standalone="no"?>
<!-- Created with Inkscape (http://www.inkscape.org/) -->

<svg
   width="73.932945mm"
   height="70.76078mm"
   viewBox="0 0 73.932945 70.76078"
   version="1.1"
   id="svg1"
   xmlns="http://www.w3.org/2000/svg"
   xmlns:svg="http://www.w3.org/2000/svg">
  <defs
     id="defs1" />
  <g
     id="layer1"
     transform="translate(-115.70457,-138.25411)">
    <path
       id="path5"
       style="fill:#008080;stroke-width:0.264583"
       d="m 117.71219,183.56244 c -0.88536,3.55466 0.66958,7.56978 3.84576,11.31197 6.2228,7.33172 18.668,13.61587 31.05186,14.1087 12.38385,0.49283 24.70579,-4.80576 30.86685,-11.86026 3.35243,-3.83858 4.88067,-8.19655 3.58221,-12.12691 a 36.966366,34.193886 0 0 1 -34.38757,21.64623 36.966366,34.193886 0 0 1 -34.95911,-23.07973 z" />
    <path
       id="path4"
       style="fill:#000000;stroke-width:0.264583"
       d="m 152.6713,138.25409 a 36.966366,34.193886 0 0 0 -36.96673,34.19378 36.966366,34.193886 0 0 0 36.96673,34.1943 36.966366,34.193886 0 0 0 36.96622,-34.1943 36.966366,34.193886 0 0 0 -36.96622,-34.19378 z m 0,19.96209 a 13.307881,14.232053 0 0 1 3.44424,0.48473 13.307881,14.232053 0 0 1 1.64847,0.59841 13.307881,14.232053 0 0 1 3.00861,1.85777 13.307881,14.232053 0 0 1 5.09271,9.43301 13.307881,14.232053 0 0 1 0.11369,1.85777 13.307881,14.232053 0 0 1 -0.11369,1.85777 13.307881,14.232053 0 0 1 -0.7643,3.16415 13.307881,14.232053 0 0 1 -1.27692,2.68924 13.307881,14.232053 0 0 1 -1.74253,2.35231 13.307881,14.232053 0 0 1 -5.2e-4,5.2e-4 13.307881,14.232053 0 0 1 -2.7559,2.26136 13.307881,14.232053 0 0 1 -4.91701,1.7849 13.307881,14.232053 0 0 1 -1.73685,0.12196 13.307881,14.232053 0 0 1 -1.73684,-0.12196 13.307881,14.232053 0 0 1 -5.2e-4,0 13.307881,14.232053 0 0 1 -1.70687,-0.36277 13.307881,14.232053 0 0 1 -5.2e-4,0 13.307881,14.232053 0 0 1 -8.08064,-6.63112 13.307881,14.232053 0 0 1 -1.78284,-7.11636 13.307881,14.232053 0 0 1 0.45372,-3.68349 13.307881,14.232053 0 0 1 2.2965,-4.98058 13.307881,14.232053 0 0 1 1.14773,-1.3994 13.307881,14.232053 0 0 1 5.96605,-3.68349 13.307881,14.232053 0 0 1 3.44423,-0.48473 z" />
  </g>
</svg>
