<?xml version="1.0" encoding="UTF-8" standalone="no"?>
<!-- Created with Inkscape (http://www.inkscape.org/) -->

<svg
   width="1920"
   height="1080"
   viewBox="0 0 1920 1080"
   version="1.1"
   id="svg1"
   inkscape:export-filename="racerEffect_material.png"
   inkscape:export-xdpi="96"
   inkscape:export-ydpi="96"
   inkscape:version="1.4.2 (f4327f4, 2025-05-13)"
   sodipodi:docname="rysunek-2.svg"
   xmlns:inkscape="http://www.inkscape.org/namespaces/inkscape"
   xmlns:sodipodi="http://sodipodi.sourceforge.net/DTD/sodipodi-0.dtd"
   xmlns="http://www.w3.org/2000/svg"
   xmlns:svg="http://www.w3.org/2000/svg">
  <sodipodi:namedview
     id="namedview1"
     pagecolor="#ffffff"
     bordercolor="#000000"
     borderopacity="0.25"
     inkscape:showpageshadow="2"
     inkscape:pageopacity="0.0"
     inkscape:pagecheckerboard="0"
     inkscape:deskcolor="#d1d1d1"
     inkscape:document-units="px"
     inkscape:zoom="2.862963"
     inkscape:cx="801.96637"
     inkscape:cy="323.26649"
     inkscape:window-width="1920"
     inkscape:window-height="991"
     inkscape:window-x="-9"
     inkscape:window-y="-9"
     inkscape:window-maximized="1"
     inkscape:current-layer="layer1" />
  <defs
     id="defs1" />
  <g
     inkscape:label="Warstwa 1"
     inkscape:groupmode="layer"
     id="layer1">
    <path
       id="rect1"
       style="fill:#00ffff"
       d="m 695.78268,250.09057 95.00649,20.95731 20.60803,66.36481 66.71411,24.4502 -85.92498,-15.36869 -11.17725,-55.88616 z"
       sodipodi:nodetypes="ccccccc"
       inkscape:export-filename="racerEffect_material.png"
       inkscape:export-xdpi="96"
       inkscape:export-ydpi="96" />
    <path
       style="fill:#ffffff;stroke-width:1.39715"
       d="m 824.22474,351.66852 -31.53205,-5.71378 -5.51542,-27.92667 -5.51543,-27.92667 -36.65716,-17.4392 c -20.16144,-9.59157 -36.35627,-17.74011 -35.9885,-18.10788 0.36777,-0.36777 18.79478,3.29501 40.94891,8.13951 l 40.28024,8.80817 10.27787,33.30463 c 5.65283,18.31754 10.36772,33.30462 10.47753,33.30462 0.82758,0 50.38895,18.44015 50.87933,18.93051 1.36004,1.36006 -7.37784,0.1132 -37.65532,-5.37324 z"
       id="path1"
       inkscape:export-filename="racerEffect_material.png"
       inkscape:export-xdpi="96"
       inkscape:export-ydpi="96" />
    <path
       style="fill:#ffffff"
       d="m 709.05563,255.32988 c 0.46572,0 1.39715,0.46572 1.39715,0 0,-0.46571 -1.76973,-0.27943 -1.39715,0 6.08843,4.56633 1.07947,0.2434 3.49288,1.04787 0.31242,0.10414 0.40403,0.5513 0.69858,0.69858 0.10414,0.0521 0.26696,-0.0823 0.34929,0 0.0823,0.0823 -0.0823,0.26696 0,0.34928 0.0823,0.0823 0.26696,-0.0823 0.34929,0 0.0823,0.0823 -0.0823,0.26697 0,0.34929 0.53658,0.53659 1.48457,0.0437 2.09573,0.34929 0.23286,0.11643 0.51448,0.1652 0.69857,0.34929 0.0823,0.0823 -0.0969,0.28471 0,0.34929 0.69547,0.46364 3.68736,1.74644 4.54076,1.74644 0.56033,0 5.99718,1.45643 6.63648,2.09573 0.0823,0.0823 -0.10414,0.29722 0,0.34929 0.69857,0.34929 0.52393,-0.17464 1.04786,0 0.86725,0.28908 1.51467,0.8618 2.44502,1.04787 0.34251,0.0685 0.73545,-0.15621 1.04787,0 0.76117,0.38058 1.60763,1.03827 2.44502,1.39715 0.44123,0.1891 0.96778,0.1346 1.39715,0.34929 0.10414,0.0521 -0.0969,0.2847 0,0.34929 1.89416,1.26277 0.19118,-0.41254 2.09573,0.34929 0.21285,0.0851 2.15184,1.55098 2.44502,1.74644 0.24235,0.16157 0.78517,-0.13135 1.04787,0 0.78744,0.39372 1.57322,1.04843 2.44502,1.39715 1.11147,0.44459 2.47469,0.78624 3.49288,1.39716 0.28238,0.16943 0.40403,0.5513 0.69858,0.69857 0.36926,0.18464 1.00597,0.1537 1.39715,0.34929 0.41915,0.20957 0.62872,0.83829 1.04787,1.04787 2.37039,1.18519 4.86828,2.04725 7.33505,3.14359 1.38313,0.61473 2.83768,1.06955 4.19147,1.74645 1.06517,0.53258 -0.63883,0.2769 1.04786,0.69857 0.90685,0.22671 1.88084,0.30709 2.79431,0.69858 0.53408,0.22889 1.56036,0.78018 2.09573,1.04786 0.29455,0.14728 0.40403,0.55131 0.69858,0.69858 0.91277,0.45639 3.47027,1.38962 4.54075,1.74644 0.31436,0.10479 0.7335,-0.10478 1.04786,0 0.15621,0.0521 0.19641,0.28814 0.34929,0.34929 0.44572,0.17829 0.95848,0.15432 1.39716,0.34929 0.54127,0.24057 3.26001,1.51357 3.84217,2.09573 0.0823,0.0823 -0.0823,0.26696 0,0.34929 0.6188,0.6188 1.81333,0.76546 2.44502,1.39715 0.0823,0.0823 -0.0823,0.26697 0,0.34929 0.58992,0.58993 1.16951,0.24329 1.74644,1.39716 0.10545,0.21089 -0.16146,0.8864 0,1.04786 0.0823,0.0823 0.29722,-0.10414 0.34929,0 0.20488,0.40976 0.12403,1.29592 0.34929,1.74644 0.32563,0.65126 0.82052,1.41369 1.04786,2.09574 0.10479,0.31436 -0.10478,0.7335 0,1.04786 0.21721,0.65163 0.43506,0.87011 0.69858,1.39716 0.49378,0.98756 -0.30057,3.68777 0,4.89003 0.49716,1.98865 1.2751,3.70326 1.74644,5.58862 0.19767,0.79067 -0.13398,1.6411 0,2.44502 0.0271,0.16242 0.27566,0.20201 0.34929,0.34929 0.29085,0.58169 -0.12054,1.84231 0,2.44502 0.0511,0.25529 0.28615,0.446 0.34929,0.69857 0.29421,1.17684 -0.0445,2.31164 0.34929,3.49289 0.17425,0.52274 -0.13391,1.21082 0,1.74644 0.37866,1.51466 1.03729,2.752 1.39715,4.19146 0.26637,1.06547 -0.01,2.06565 0.34929,3.1436 0.52079,1.56238 -0.39969,3.64055 0,5.23933 0.0399,0.15974 0.27565,0.20201 0.34929,0.34929 0.13792,0.27583 -0.0982,0.75329 0,1.04786 0.0823,0.24699 0.28615,0.44601 0.34929,0.69858 0.18652,0.74609 -0.24305,1.71586 0,2.44502 0.17339,0.52017 0.91788,1.22649 1.04786,1.74644 0.14304,0.57213 -0.2827,1.87961 0,2.44502 0.36887,0.73774 0.18173,1.06203 0.34929,1.39715 0.0736,0.14728 0.30936,0.18955 0.34929,0.34929 0.0847,0.33886 -0.19375,0.75724 0,1.04787 0.12917,0.19375 0.47767,-0.0736 0.69858,0 0.0989,0.033 1.00748,1.276 1.04786,1.39715 0.0736,0.22091 -0.0736,0.47767 0,0.69858 0.10414,0.31241 0.55131,0.40403 0.69858,0.69857 0.0521,0.10414 -0.0823,0.26697 0,0.34929 0.16466,0.16466 0.4903,-0.10413 0.69858,0 1.07957,0.53979 2.15985,0.8257 3.49288,1.04787 0.68907,0.11484 1.41072,-0.137 2.09573,0 1.2265,0.2453 2.69922,0.82568 3.84218,1.39715 0.97591,0.48796 1.42315,0.0938 2.44502,0.34929 0.15974,0.0399 0.23285,0.23286 0.34928,0.34929 0.34929,0.11643 0.6847,0.28876 1.04787,0.34929 0.57423,0.0957 1.18168,-0.14119 1.74644,0 0.25257,0.0631 0.44329,0.29823 0.69858,0.34929 1.23134,0.24627 2.60293,-0.20654 3.84217,0 0.36317,0.0605 0.68684,0.27708 1.04787,0.34929 0.88826,0.17765 1.91692,-0.21935 2.79431,0 0.35718,0.0893 0.68338,0.29721 1.04786,0.34928 0.46104,0.0659 0.94048,-0.0913 1.39715,0 0.16146,0.0323 0.20202,0.27566 0.34929,0.34929 0.27584,0.13792 0.7533,-0.0982 1.04787,0 0.24698,0.0823 0.446,0.28615 0.69858,0.34929 0.45181,0.11295 0.95533,-0.14727 1.39715,0 0.15621,0.0521 0.19308,0.29722 0.34929,0.34929 0.22091,0.0736 0.4903,-0.10414 0.69858,0 0.10413,0.0521 -0.10414,0.29722 0,0.34929 0.48416,0.24208 2.19405,0.19922 2.7943,0.34929 0.68718,0.17179 1.40167,0.5829 2.09573,0.69857 1.20065,0.20011 3.32344,-0.0565 4.54075,0.34929 0.11046,0.0368 -0.0823,0.26696 0,0.34929 0.48193,0.48193 2.04893,0.16294 2.79431,0.34929 0.84033,0.21008 1.61664,0.42245 2.44502,0.69858 1.31725,0.43908 2.87432,0.25952 4.19146,0.69857 0.84174,0.28058 1.93027,-0.21601 2.79431,0 0.77344,0.19336 1.27363,0.34929 2.09573,0.34929 0.81501,0 1.63002,0 2.44502,0 0.34929,0 0.69858,0 1.04787,0 0.11643,0 0.34929,0.11643 0.34929,0 0,-0.17041 -1.46058,0.24611 -2.44502,0 -1.04777,-0.26194 -3.67161,-1.13723 -4.89004,-1.74644 -0.4336,-0.2168 -1.25934,-0.8855 -1.74645,-1.04787 -0.2209,-0.0736 -0.47766,0.0736 -0.69857,0 -0.15621,-0.0521 -0.18955,-0.30935 -0.34929,-0.34929 -0.33886,-0.0847 -0.72356,0.12973 -1.04787,0 -0.30575,-0.1223 -0.42457,-0.5159 -0.69857,-0.69857 -0.19375,-0.12917 -0.4903,0.10414 -0.69858,0 -0.14727,-0.0736 -0.19308,-0.29722 -0.34929,-0.34929 -0.33543,-0.11181 -1.06192,0.16762 -1.39715,0 -0.29455,-0.14727 -0.3791,-0.61871 -0.69858,-0.69858 -0.33886,-0.0847 -0.70333,0.0574 -1.04786,0 -1.31885,-0.21981 -3.02378,-0.69654 -4.19147,-1.39715 -2.08806,-1.25284 -3.95266,-2.51868 -5.9379,-3.84218 -0.53013,-0.35342 -1.24539,-0.44805 -1.74644,-0.69857 -0.80118,-0.40059 -1.54282,-1.09642 -2.44502,-1.39716 -0.45542,-0.1518 -0.95848,-0.15432 -1.39716,-0.34928 -1.30864,-0.58162 -2.46007,-1.63503 -3.84217,-2.09574 -1.09489,-0.36496 -2.30795,-0.40234 -3.49288,-0.69857 -0.77852,-0.19463 -2.08819,0.35306 -2.79431,0 -0.60619,-0.3031 -1.33869,-1.01864 -2.09573,-1.39716 -1.07309,-0.53654 0.5777,-0.19701 -0.69858,-1.04786 -0.19375,-0.12917 -0.53392,0.16465 -0.69858,0 -0.16465,-0.16466 0.12917,-0.50483 0,-0.69858 -0.14441,-0.21662 -0.51448,-0.1652 -0.69857,-0.34929 -0.0823,-0.0823 0.0521,-0.24515 0,-0.34929 0.091,-0.73796 -0.55417,-0.13266 -0.69858,-0.34928 -0.26062,-0.39093 -0.91868,-1.92826 -1.04787,-2.44502 -0.0847,-0.33886 0.11046,-0.7165 0,-1.04787 -0.40012,-1.20037 -0.50404,-2.75453 -1.04786,-3.84217 -0.82471,-1.64941 0.18369,2.13192 -0.69858,-1.39716 -0.1057,-0.42282 -0.16389,-1.02635 -0.34929,-1.39715 -0.495,-0.99001 -1.0125,-2.33894 -1.39715,-3.49289 -0.1652,-0.4956 0.23166,-1.28311 0,-1.74644 -0.11643,-0.23286 -0.60963,-0.69857 -0.34929,-0.69857 0.16466,0 0.19308,0.29722 0.34929,0.34928 0.22091,0.0736 0.55311,-0.18183 0.69858,0 1.42481,1.78102 -0.004,2.78643 0.69857,4.19147 0.007,0.0131 0.8252,-0.12663 0.34929,0.34928 -0.68093,0.68093 -1.6372,-2.94667 -1.74644,-3.49288 -0.12923,-0.64614 0.3007,-1.84362 0,-2.44502 -0.44243,-0.88486 -0.0748,-0.99797 -0.34929,-2.09573 -0.16278,-0.6511 -1.10518,-1.16249 -1.39715,-1.74644 -0.24467,-0.48934 -0.45391,-1.25711 -0.69858,-1.74645 -0.32152,-0.64304 -0.72634,-0.0555 -1.04787,-0.69857 -0.16761,-0.33524 0.11182,-1.06172 0,-1.39716 -0.0521,-0.1562 -0.29722,-0.19308 -0.34929,-0.34929 -0.0736,-0.2209 0.10414,-0.4903 0,-0.69857 -0.0521,-0.10414 -0.29721,0.10414 -0.34928,0 -0.10414,-0.20828 0.10413,-0.4903 0,-0.69858 -0.0521,-0.10414 -0.29722,0.10414 -0.34929,0 -0.10414,-0.20827 0.12916,-0.50483 0,-0.69858 -0.14442,-0.21662 -0.55417,-0.13267 -0.69858,-0.34928 -0.0614,-0.0921 -0.65601,-4.06377 -0.69858,-4.19147 -0.0368,-0.11045 -0.26696,0.0823 -0.34928,0 -0.11622,-0.11621 0.0235,-1.32666 0,-1.39715 -0.33421,-1.00261 -0.32624,-0.23402 -0.69858,-2.09573 -0.17697,-0.88486 0.40292,-2.33776 0,-3.1436 -0.79928,-1.59855 0.14477,1.48218 -0.69858,-1.04786 -0.0982,-0.29457 0.13792,-0.77204 0,-1.04787 -0.14727,-0.29454 -0.5513,-0.40403 -0.69858,-0.69858 -0.87629,-1.75259 -1.55734,-3.46398 -2.44501,-5.23932 -0.14728,-0.29455 -0.59444,-0.38617 -0.69858,-0.69858 -0.1919,-0.57569 -0.10325,-2.30223 -0.34929,-2.79431 -0.0521,-0.10414 -0.29722,0.10414 -0.34929,0 -0.0161,-0.0322 -0.58129,-2.09316 -0.69858,-2.44502 -0.0982,-0.29457 0.13792,-0.77203 0,-1.04786 -0.79927,-1.59856 0.14477,1.48217 -0.69857,-1.04787 -0.14728,-0.44182 0.11295,-0.94534 0,-1.39715 -0.0799,-0.31948 -0.51591,-0.42457 -0.69858,-0.69858 -0.49755,-0.74632 -0.18183,-0.72732 -0.34929,-1.39715 -0.17859,-0.71438 -0.55416,-1.37367 -0.69858,-2.09573 -0.0685,-0.34251 0.11046,-0.71651 0,-1.04787 -0.24038,-0.72115 -0.75355,-0.80854 -1.04786,-1.39715 -0.0521,-0.10414 0.0823,-0.26696 0,-0.34929 -0.29605,-0.29605 -2.66828,-0.54014 -3.1436,-0.69858 -0.59481,-0.19827 -1.13162,-0.57561 -1.74644,-0.69858 -0.57084,-0.11416 -1.17015,0.0823 -1.74644,0 -1.09012,-0.15573 -2.71284,-0.82199 -3.84218,-1.04786 -0.72201,-0.1444 -1.74052,0.23483 -2.44501,0 -0.15621,-0.0521 -0.20202,-0.27565 -0.34929,-0.34929 -1.43594,-0.71797 -0.62589,-0.10431 -2.09573,-0.34929 -1.12487,-0.18748 -1.98722,-0.85513 -3.1436,-1.04786 -0.37226,-0.062 -1.01911,0.12601 -1.39715,0 -0.49397,-0.16466 -0.8817,-0.62494 -1.39716,-0.69858 -0.5763,-0.0823 -1.1756,0.11417 -1.74644,0 -0.61482,-0.12296 -1.14154,-0.53361 -1.74644,-0.69858 -2.29557,-0.62606 -4.70663,-0.77557 -6.98577,-1.39715 -2.37524,-0.64779 -4.62177,-1.80029 -6.98577,-2.44502 -0.42401,-0.33886 -0.94534,0.11295 -1.39716,0 -4.53188,-1.13297 -9.09708,-2.31241 -13.62225,-3.49289 -1.01275,-0.26419 -2.07486,-0.57982 -3.14359,-0.69857 -0.69431,-0.0771 -1.40528,0.10622 -2.09574,0 -5.45195,-0.83877 0.3345,-0.60466 -4.54075,-1.04787 -0.42509,-0.0386 -2.65908,0.13523 -3.14359,-0.34929 -0.0823,-0.0823 0.10414,-0.29722 0,-0.34929 -0.84534,-0.42267 -2.57419,0.18374 -3.49289,0 -1.28267,-0.25653 -2.14856,-0.69857 -3.49288,-0.69857 -0.46572,0 -0.93144,0 -1.39716,0 -0.11642,0 -0.34928,-0.11643 -0.34928,0 0,0.52899 1.80009,1.04786 2.09573,1.04786"
       id="path2" />
    <path
       style="fill:#ffffff"
       d="m 719.88357,258.47348 c 0.81501,0.11643 1.67416,0.0602 2.44502,0.34929 2.88018,1.08007 5.37156,2.99955 8.03364,4.54075 5.04263,2.91942 9.53008,5.85457 15.0194,7.68435"
       id="path3" />
    <path
       style="fill:#ffffff"
       d="m 736.64942,264.41138 c 4.93637,1.26215 9.70356,2.71721 14.32083,4.89004 1.64244,0.77292 3.17647,1.87383 4.89004,2.44502"
       id="path4" />
    <path
       style="fill:#ffffff"
       id="path5"
       d="m 715.94975,255.85672 c 0.8496,0.72753 -0.0969,-0.0374 0.85054,0.58756 0.53583,0.35343 0.98176,0.81843 1.54295,1.14164 4.43958,2.55698 8.9008,5.0762 13.3512,7.61429 2.28312,1.04744 4.69032,1.7636 7.0787,2.52236 2.00843,0.49057 3.984,1.07498 6.01619,1.46496 0.88536,0.27112 0.45957,0.14426 1.2769,0.38208 0,0 -11.71654,-8.96372 -11.71654,-8.96372 v 0 c -0.75794,-0.15996 -0.35919,-0.0831 -1.19709,-0.22608 -1.92366,-0.39501 -3.82495,-0.91235 -5.71591,-1.43794 -2.42213,-0.76691 -4.83143,-1.59004 -7.06566,-2.82141 3.88194,2.24536 7.77172,4.47723 11.64582,6.73609 0.35196,0.20522 -0.73174,-0.36576 -1.06388,-0.6017 -0.14298,-0.10157 -0.27862,-0.21309 -0.41792,-0.31964 -0.11882,-0.1275 -0.21489,-0.28085 -0.35646,-0.38251 -0.10213,-0.0733 -0.23651,-0.0855 -0.35477,-0.12821 z" />
    <circle
       id="path8"
       style="fill:#00ffff;stroke:#000000"
       cx="789.04266"
       cy="324.48901"
       r="0.043960843" />
    <path
       style="fill:#00ffff"
       id="path9"
       d="m 781.36266,290.86486 c 0.3182,1.24463 0.61551,2.49397 0.93764,3.73882 0.34454,1.50332 0.79541,2.98005 1.11478,4.48891 0.26805,1.35804 0.70212,2.67416 1.02889,4.01755 0.22512,1.00971 0.31528,2.04175 0.4509,3.06585 0.16509,1.29545 0.2153,2.60127 0.2425,3.90571 0.0718,0.96056 0.22032,1.91217 0.29476,2.87261 0.0516,1.27173 0.21938,2.53313 0.51738,3.76991 0.24239,0.92066 0.4175,1.85574 0.72408,2.75829 0.328,0.78856 0.58625,1.60296 0.9024,2.39601 0.42066,0.89246 0.51931,1.86852 0.6882,2.82576 0.18668,0.803 0.44902,1.57882 0.58652,2.39407 0.15577,0.96251 0.37913,1.91018 0.57635,2.86425 0.18548,1.28385 0.34473,2.57315 0.46983,3.86473 0.10491,1.09833 0.12608,2.20208 0.13477,3.30462 -0.005,0.91307 -0.01,1.82175 0.0985,2.72916 0.0841,0.71337 0.29736,1.40736 0.50386,2.0938 0.21436,0.77882 0.5465,1.50603 0.9017,2.22768 0.32805,0.67865 0.68926,1.33599 1.12491,1.95136 0.20657,0.36334 0.10469,0.17687 0.305,0.55977 0,0 3.66447,0.68866 3.66447,0.68866 v 0 c -0.21459,-0.37851 -0.11524,-0.17888 -0.29451,-0.60063 -0.42374,-0.61035 -0.8536,-1.21001 -1.155,-1.89648 -0.33965,-0.71028 -0.70849,-1.40099 -0.89708,-2.1728 -0.22455,-0.65978 -0.41313,-1.34774 -0.53631,-2.03153 -0.12242,-0.89464 -0.11422,-1.78602 -0.10726,-2.68804 -0.0222,-1.11554 -0.066,-2.23077 -0.15639,-3.34311 -0.14013,-1.29921 -0.30419,-2.59582 -0.43792,-3.89521 -0.19159,-0.94899 -0.4296,-1.88665 -0.57435,-2.84517 -0.11499,-0.82575 -0.3558,-1.61143 -0.58432,-2.40959 -0.21174,-0.96806 -0.24922,-1.98113 -0.67837,-2.89458 -0.31838,-0.78756 -0.554,-1.60278 -0.89482,-2.38103 -0.3391,-0.88508 -0.50628,-1.8167 -0.7608,-2.72761 -0.31342,-1.21101 -0.51352,-2.44766 -0.51342,-3.70218 -0.0568,-0.96033 -0.2086,-1.9067 -0.31781,-2.86179 -0.0391,-1.31528 -0.0902,-2.63152 -0.23347,-3.94036 -0.11832,-1.04019 -0.20158,-2.08828 -0.44567,-3.109 -0.3301,-1.34155 -0.77161,-2.65344 -1.04809,-4.00844 -0.30922,-1.51939 -0.77933,-2.99733 -1.129,-4.50775 -0.30407,-1.24089 -0.59785,-2.48065 -0.85146,-3.73239 z" />
    <path
       style="fill:#00ffff"
       id="path10"
       d="m 787.64985,272.35257 c 0.76952,1.94246 1.3937,3.93134 2.00362,5.92838 0.58217,2.00037 1.12114,4.01303 1.70337,6.01338 0.36946,1.20044 0.89284,2.34089 1.30071,3.52803 0.30884,1.11032 0.75989,2.17055 1.15595,3.25096 0.56337,1.61326 1.06491,3.24675 1.50434,4.89795 0.34663,1.43762 0.55378,2.90387 0.98048,4.32148 0.42657,1.45109 0.85326,2.90183 1.24131,4.36379 0.35347,1.37202 0.87647,2.68921 1.35675,4.01925 0.4293,1.28788 0.82083,2.59202 1.15779,3.90739 0.33234,1.38475 0.69779,2.76237 0.9428,4.166 0.0872,1.1633 0.50079,2.25265 0.83503,3.35861 0.35995,1.23949 0.72226,2.47764 1.1497,3.6958 0.43376,1.14524 0.82443,2.30971 1.18035,3.48163 0.38529,1.31042 0.72248,2.63408 1.05874,3.95771 0.34488,1.22668 0.68652,2.45729 1.12108,3.65579 0.29253,0.73333 0.66211,1.43115 1.01451,2.13643 0.32364,0.6384 0.66606,1.28488 0.85353,1.97879 -7.4e-4,0.0659 -0.001,0.13174 -0.002,0.19761 0,0 3.634,0.88575 3.634,0.88575 v 0 c 0.005,-0.0998 0.01,-0.19962 0.015,-0.29943 -0.16001,-0.72417 -0.51098,-1.40279 -0.84698,-2.05956 -0.3376,-0.70547 -0.72006,-1.38849 -1.03544,-2.10502 -0.46273,-1.17994 -0.84685,-2.39097 -1.15444,-3.62105 -0.34158,-1.32731 -0.69664,-2.65 -1.06457,-3.97032 -0.32358,-1.1849 -0.73558,-2.34919 -1.16093,-3.50068 -0.43653,-1.2088 -0.83367,-2.43098 -1.14837,-3.6778 -0.3337,-1.09267 -0.75963,-2.16879 -0.85503,-3.3179 -0.25432,-1.41123 -0.62583,-2.79572 -0.95622,-4.19042 -0.29184,-1.33577 -0.74092,-2.63468 -1.13227,-3.94399 -0.47352,-1.32739 -1.03397,-2.62424 -1.38562,-3.99307 -0.38596,-1.46332 -0.81601,-2.91473 -1.2153,-4.37445 -0.4545,-1.41254 -0.68323,-2.87774 -1.03599,-4.31692 -0.43355,-1.65467 -0.91203,-3.29697 -1.44829,-4.92148 -0.39639,-1.07378 -0.82869,-2.13555 -1.13239,-3.24024 -0.42464,-1.19016 -0.94927,-2.33277 -1.36817,-3.52456 -0.61293,-2.00076 -1.1525,-4.02243 -1.75223,-6.02671 -0.6109,-1.96788 -1.21403,-3.9362 -1.86319,-5.8913 z" />
    <path
       style="fill:#00ffff"
       id="path11"
       d="m 781.83994,287.22233 c -1.10981,-0.34893 -2.11215,-0.93566 -3.11821,-1.50429 -0.71304,-0.50768 -1.47817,-0.93944 -2.26702,-1.31716 -0.74417,-0.26414 -1.44003,-0.62669 -2.14792,-0.9711 -0.62964,-0.28222 -1.23671,-0.61092 -1.84721,-0.932 -0.64415,-0.30595 -1.31857,-0.53929 -1.97411,-0.81806 -0.78018,-0.24074 -1.49637,-0.62895 -2.24926,-0.93586 -0.73302,-0.23256 -1.44223,-0.52927 -2.15464,-0.81734 -0.93474,-0.37575 -1.86117,-0.75523 -2.72023,-1.28459 -0.81112,-0.46301 -1.62914,-0.91218 -2.42994,-1.39369 -0.68165,-0.27634 -1.26441,-0.72662 -1.91925,-1.05119 -0.72571,-0.46023 -1.43523,-0.94553 -2.16137,-1.40476 -0.68317,-0.36144 -1.33056,-0.78884 -2.04043,-1.09876 -0.73289,-0.25715 -1.42242,-0.61324 -2.14244,-0.90315 -0.72534,-0.31192 -1.44421,-0.64562 -2.19856,-0.88113 -0.63047,-0.26362 -1.25342,-0.54331 -1.83304,-0.90693 -0.61174,-0.37566 -1.26569,-0.65229 -1.91029,-0.95884 -0.7143,-0.307 -1.44571,-0.566 -2.18164,-0.8203 -0.6525,-0.13994 -1.19816,-0.51091 -1.77512,-0.82099 -0.86583,-0.41684 -1.77905,-0.7171 -2.65572,-1.11521 -1.10927,-0.54375 -2.25394,-0.99027 -3.2746,-1.69406 -0.8296,-0.50977 -1.69495,-0.96799 -2.57244,-1.39442 -1.02455,-0.60397 -2.04716,-1.21106 -3.07643,-1.80731 -0.90114,-0.49801 -1.7891,-1.01684 -2.68983,-1.515 -0.90354,-0.36498 -1.78594,-0.73109 -2.61892,-1.23842 -0.95461,-0.47922 -1.94313,-0.88415 -2.9445,-1.25419 -1.33343,-0.46348 -2.65757,-0.94782 -3.98437,-1.42934 -1.20398,-0.31153 -2.33692,-0.8187 -3.49579,-1.25725 -1.44805,-0.48338 -2.8967,-0.97487 -4.30639,-1.5616 -1.06264,-0.39186 -2.0625,-0.92471 -3.10136,-1.36817 0,0 -0.14911,3.71341 -0.14911,3.71341 v 0 c 1.03555,0.4367 2.05277,0.91681 3.11087,1.30032 1.42948,0.55637 2.86491,1.10545 4.31414,1.60665 1.16281,0.42756 2.3027,0.91775 3.49996,1.2477 1.32675,0.47728 2.67144,0.90432 3.97925,1.43206 0.97796,0.37562 1.94971,0.77859 2.87685,1.26722 0.84263,0.50107 1.75298,0.83366 2.63299,1.26056 0.89482,0.48441 1.79602,0.95534 2.68231,1.45576 1.03591,0.61196 2.05105,1.25991 3.10208,1.84541 0.8619,0.42391 1.7089,0.88412 2.52394,1.39122 1.05387,0.67396 2.22691,1.0953 3.32923,1.68111 0.86367,0.42054 1.79035,0.6851 2.6288,1.15528 0.58508,0.33647 1.1762,0.65649 1.83984,0.81377 0.72483,0.25349 1.44505,0.51319 2.14582,0.82801 0.63965,0.28315 1.2643,0.59382 1.86665,0.95112 0.61024,0.36295 1.25407,0.66603 1.92099,0.91058 0.73964,0.24578 1.45398,0.56707 2.16925,0.87513 0.71204,0.30026 1.40807,0.63752 2.12991,0.9143 0.68322,0.3181 1.32682,0.71441 1.98768,1.07532 0.73351,0.47267 1.44984,0.9737 2.19459,1.42772 0.6354,0.34085 1.2368,0.74071 1.89769,1.03505 0.803,0.47065 1.62029,0.91419 2.42806,1.37583 0.88455,0.52412 1.83006,0.90676 2.77589,1.30588 0.70916,0.29713 1.42351,0.58088 2.15379,0.8225 0.74812,0.31436 1.47376,0.67751 2.24698,0.93086 0.65013,0.27179 1.30744,0.52627 1.94106,0.83629 0.61039,0.32308 1.23327,0.623 1.85727,0.91841 0.70241,0.35469 1.4175,0.67516 2.14986,0.96376 0.77285,0.38839 1.51929,0.82748 2.24806,1.293 1.02607,0.56866 2.05659,1.12746 3.15536,1.54727 z" />
    <circle
       id="path12"
       style="fill:#00ffff;stroke:#000000"
       cx="752.36737"
       cy="263.7128"
       r="0.043960843" />
    <path
       style="fill:#00ffff"
       id="path13"
       d="m 788.38233,271.2387 c -1.51211,-0.0895 -2.98897,-0.46927 -4.43668,-0.89477 -1.21676,-0.38731 -2.4805,-0.64568 -3.66191,-1.13544 -0.91411,-0.3334 -1.83462,-0.64636 -2.75336,-0.96698 -0.84614,-0.30942 -1.72951,-0.48344 -2.59479,-0.72239 -0.70717,-0.14404 -1.38669,-0.38474 -2.08629,-0.55284 -0.77778,-0.0634 -1.51185,-0.26556 -2.2424,-0.52632 -0.6996,-0.21165 -1.4017,-0.41339 -2.10286,-0.62085 -0.79051,-0.24505 -1.56104,-0.52835 -2.37581,-0.68676 -0.85451,-0.11299 -1.71336,-0.10043 -2.54826,-0.33652 -0.66235,-0.2672 -1.37369,-0.33268 -2.06157,-0.49353 -1.0132,-0.27017 -1.98959,-0.62162 -3.02621,-0.79668 -1.11819,-0.17642 -2.26428,-0.27298 -3.36448,-0.54639 -0.84135,-0.21059 -1.70227,-0.3102 -2.5548,-0.46411 -1.03347,-0.19006 -2.04354,-0.4972 -3.06092,-0.76139 -1.52763,-0.35054 -3.00469,-0.86143 -4.50283,-1.31497 -1.19101,-0.23697 -2.31409,-0.70967 -3.48961,-0.99413 -1.07649,-0.26189 -2.15286,-0.53745 -3.2041,-0.88877 -1.125,-0.32415 -2.29263,-0.4669 -3.4337,-0.72245 -1.36117,-0.33593 -2.7719,-0.38307 -4.1622,-0.52575 -1.30455,-0.10578 -2.59774,-0.3078 -3.88484,-0.54062 -1.07681,-0.20306 -2.16135,-0.3545 -3.25385,-0.43747 -1.02427,-0.0267 -2.03805,-0.19595 -3.05674,-0.29656 -0.84611,-0.0876 -1.68111,-0.25849 -2.52405,-0.37984 -0.99365,-0.30888 -2.03572,-0.42737 -3.03552,-0.70248 -0.46878,-0.13605 -0.23655,-0.072 -0.69654,-0.19251 0,0 -0.0941,3.72354 -0.0941,3.72354 v 0 c 0.45577,0.1159 0.22281,0.0555 0.69878,0.18165 1.02002,0.23605 2.06083,0.3843 3.06757,0.68285 0.84498,0.15414 1.69312,0.32433 2.5493,0.39354 1.02302,0.0901 2.03982,0.24597 3.06543,0.30012 1.07875,0.0685 2.15238,0.19768 3.21316,0.40916 1.29496,0.23886 2.5989,0.41529 3.91319,0.50494 1.37843,0.14837 2.77002,0.24181 4.12184,0.56451 1.13389,0.23707 2.28758,0.39776 3.39677,0.74166 1.06447,0.3306 2.1486,0.59429 3.22757,0.87243 1.16068,0.31122 2.29093,0.7269 3.47532,0.95417 1.50654,0.44735 2.98624,0.97567 4.51431,1.35027 1.02587,0.27364 2.04186,0.59964 3.08765,0.78414 0.84675,0.16181 1.70376,0.25843 2.54081,0.46934 1.11602,0.22638 2.25711,0.33116 3.38042,0.51747 1.02658,0.19999 2.00576,0.55 3.0095,0.83873 0.68605,0.15029 1.38572,0.23933 2.05019,0.48188 0.84688,0.20173 1.71014,0.23085 2.57044,0.34275 0.80125,0.15865 1.55999,0.44241 2.33887,0.68205 0.69376,0.21375 1.39216,0.412 2.0854,0.62683 0.74207,0.25977 1.49544,0.42867 2.27561,0.52991 0.69293,0.18867 1.38124,0.38346 2.08241,0.54154 0.86041,0.22337 1.73007,0.40828 2.56804,0.71338 0.91394,0.31606 1.82989,0.62668 2.73765,0.95962 1.20265,0.4563 2.47239,0.71036 3.6998,1.09167 1.47609,0.41001 2.96878,0.78325 4.49203,0.9686 z" />
    <path
       style="fill:#00ffff"
       id="path14"
       d="m 789.49058,270.2257 c -0.96433,0.0115 -1.93371,0.0684 -2.89497,-0.0241 -0.77869,-0.0568 -1.52259,-0.26273 -2.27919,-0.43435 -0.74554,-0.31088 -1.5505,-0.41754 -2.34737,-0.50362 -0.54133,-0.0425 -0.27281,-0.0247 -0.80551,-0.0537 0,0 -0.0195,3.71778 -0.0195,3.71778 v 0 c 0.51984,0.0261 0.25813,0.01 0.78512,0.0494 0.78727,0.0846 1.56103,0.22364 2.30291,0.51073 0.7711,0.18065 1.53645,0.36532 2.33083,0.41842 0.97365,0.0789 1.95189,0.0109 2.92763,0.0595 z" />
    <path
       style="fill:#00ffff"
       id="path15"
       d="m 788.65805,275.19116 c 1.15819,-0.78876 4.24007,-2.79585 0.49413,-4.52941 1.30025,-0.42381 -0.11058,-0.005 0.12035,3.67415 0.005,0.0761 0.15157,-0.0167 0.22762,-0.0219 0.26813,-0.0182 0.53657,-0.0179 0.80504,-0.012 1.37548,0.22496 1.14608,-3.78914 -0.2816,-3.73505 0,0 0.005,3.74488 0.005,3.74488 v 0 c 1.42947,0.0154 1.67022,-3.92583 0.27663,-3.75189 -0.12248,0.003 -1.09303,0.0201 -1.0946,0.0291 -0.65217,3.75125 -1.59489,3.39446 -0.25099,3.82702 1.06374,0.78342 -0.0572,-0.009 0.0281,-3.58299 10e-4,-0.0587 0.12755,0.0514 0.13816,0.10909 0.0296,0.16109 -0.38758,0.32927 -0.40109,0.33649 -0.11861,0.0635 -0.24026,0.12114 -0.36039,0.18171 z" />
    <path
       style="fill:#00ffff"
       id="path16"
       d="m 794.2252,346.61448 c 1.14638,-0.0221 2.29625,-0.0565 3.44115,0.014 0.73296,0.10392 1.49084,0.087 2.21305,0.2647 0.3132,0.0771 0.61779,0.18593 0.92906,0.27042 1.15167,0.31909 2.28302,0.69725 3.45253,0.9528 0.94187,0.21543 1.91267,0.17193 2.86627,0.27667 1.00637,0.17893 2.03166,0.17378 3.04259,0.30493 1.09921,0.11447 2.1801,0.34404 3.2703,0.51823 0.77714,0.088 1.52118,0.34713 2.27843,0.53204 1.18742,0.28635 2.37494,0.55725 3.54416,0.9111 1.02183,0.24084 2.03928,0.4964 3.05443,0.76483 1.31042,0.22994 2.62555,0.41638 3.92864,0.68835 1.0389,0.24003 2.05699,0.51556 3.11644,0.65385 0.81078,0.052 1.61328,0.17752 2.39915,0.38342 1.19727,0.27944 2.42298,0.42626 3.63169,0.65582 1.77558,0.35708 3.56933,0.61376 5.36738,0.82541 1.81228,0.2445 3.63211,0.43226 5.4438,0.68198 1.8029,0.35122 3.60911,0.67452 5.42246,0.96506 1.58069,0.22167 3.1634,0.43371 4.75031,0.60796 1.40401,0.0584 2.76582,0.41206 4.14494,0.64472 0.95757,0.27604 1.81761,0.78321 2.77188,1.07381 0.65267,0.2086 1.27854,0.48703 1.89988,0.77478 0.24027,0.15633 0.15967,0.0638 0.27451,0.24542 0,0 0.28306,-3.74387 0.28306,-3.74387 v 0 c -0.23456,-0.15285 -0.10301,-0.075 -0.39872,-0.22664 -0.63789,-0.28408 -1.27726,-0.56595 -1.94829,-0.76386 -0.96199,-0.29653 -1.83928,-0.80837 -2.82166,-1.04109 -1.38633,-0.227 -2.75961,-0.55846 -4.16783,-0.62252 -1.58287,-0.15402 -3.15606,-0.38535 -4.73018,-0.60915 -1.81203,-0.28777 -3.6302,-0.53714 -5.42822,-0.90983 -1.81146,-0.27774 -3.63146,-0.50004 -5.45107,-0.7155 -1.78551,-0.23252 -3.57736,-0.43959 -5.33999,-0.81567 -1.20236,-0.25674 -2.41522,-0.46139 -3.61069,-0.74344 -0.80279,-0.20146 -1.61721,-0.32384 -2.4443,-0.36634 -1.04747,-0.13725 -2.05581,-0.42703 -3.09117,-0.62795 -1.29935,-0.25489 -2.60821,-0.45317 -3.90664,-0.70967 -1.01174,-0.26662 -2.0245,-0.52528 -3.04473,-0.75679 -1.17958,-0.33411 -2.37422,-0.60666 -3.55545,-0.93463 -0.76313,-0.20815 -1.52304,-0.45247 -2.31559,-0.52131 -1.09552,-0.16286 -2.18022,-0.39059 -3.28147,-0.51502 -1.01449,-0.11944 -2.03964,-0.14093 -3.04884,-0.31411 -0.94167,-0.0968 -1.89673,-0.0648 -2.82783,-0.26367 -1.16652,-0.24276 -2.28702,-0.62577 -3.42894,-0.95654 -1.05622,-0.30675 -2.11674,-0.474 -3.21952,-0.51657 -1.15401,-0.0786 -2.30942,-0.0258 -3.46498,-0.0696 z" />
    <path
       style="fill:#00ffff"
       id="path18"
       d="m 809.46554,340.1023 c 2.32501,1.09286 4.64222,2.18624 7.01414,3.17715 3.63206,1.54695 7.28908,3.02772 11.0085,4.35236 3.47957,1.16272 6.88388,2.52937 10.32486,3.79906 1.96591,0.69755 3.9034,1.46998 5.86913,2.16764 0,0 0.11827,-3.56909 0.11827,-3.56909 v 0 c -1.9713,-0.65621 -3.91154,-1.39511 -5.86415,-2.10441 -3.44638,-1.25537 -6.86186,-2.5932 -10.32903,-3.79093 -3.71313,-1.30718 -7.3827,-2.72875 -10.9866,-4.3147 -2.37454,-1.05672 -4.70399,-2.19642 -6.98199,-3.44848 z" />
    <circle
       id="path19"
       style="fill:#00ffff;stroke:#000000"
       cx="844.23029"
       cy="352.08279"
       r="0.043960843" />
    <path
       style="fill:#00ffff"
       id="path21"
       d="m 842.02003,351.47421 c 0.89703,0.62281 1.76006,1.23322 2.79951,1.59005 0.79421,0.3038 1.74847,0.13877 2.51223,0.52705 -0.0496,-0.61889 -0.0239,-1.24848 -0.14876,-1.85667 -5.5e-4,-0.003 -0.39766,-0.0845 -0.57251,-0.14773 -0.35735,-0.12926 -0.70003,-0.29433 -1.06121,-0.41863 -0.1276,-0.0504 -0.25726,-0.0958 -0.38279,-0.15117 -0.10588,-0.0467 -0.56144,-0.26004 -0.66453,-0.36586 -0.0381,-0.0391 -0.0459,-0.21232 -0.0441,-0.15775 0.0629,1.8924 -0.48576,1.86978 0.39381,1.7455 0.52418,0.0521 1.92962,0.16775 2.22372,0.63265 0.86845,1.19914 1.81049,2.32323 2.94376,3.27953 1.46405,1.03116 3.18234,1.53376 4.91488,1.89032 1.12654,0.22856 2.27454,0.22039 3.41778,0.21991 1.19245,-0.0463 2.37178,-0.007 3.55347,0.15051 0.13449,0.0174 0.26897,0.0348 0.40345,0.0522 0,0 0.0232,-1.85763 0.0232,-1.85763 v 0 c -0.13434,-0.0164 -0.26869,-0.0327 -0.40303,-0.0491 -1.18982,-0.1462 -2.37809,-0.16711 -3.5766,-0.13444 -1.13016,-0.007 -2.26581,-0.0112 -3.38191,-0.21426 -1.70957,-0.33584 -3.39926,-0.83 -4.82253,-1.87706 -1.12833,-0.97347 -2.05568,-2.11782 -2.91851,-3.32954 -0.59761,-0.48495 -1.66686,-0.51653 -2.39798,-0.62635 -0.99384,0.0832 -0.50945,-0.0797 -0.56834,1.98327 -0.006,0.20287 0.72778,0.46802 0.83394,0.51392 0.12807,0.0554 0.25992,0.10155 0.38988,0.15233 0.11832,0.0419 1.69014,0.68067 1.71654,0.58522 0.16933,-0.61217 0.13385,-1.26324 0.20077,-1.89486 -0.8172,-0.26483 -1.70293,-0.24413 -2.52285,-0.501 -1.02001,-0.35794 -1.87332,-0.9706 -2.74594,-1.59829 z" />
    <path
       style="fill:#00ffff"
       id="path22"
       d="m 784.05893,291.25464 c -0.75355,-0.55888 -1.22559,-1.38193 -1.86662,-2.05273 0,0 -0.15084,1.84464 -0.15084,1.84464 v 0 c 0.63365,0.68441 1.12805,1.49274 1.87065,2.07349 z" />
    <path
       style="fill:#00ffff"
       id="path23"
       d="m 783.42493,289.81807 c -0.55413,-0.84089 -0.9139,-1.78626 -1.60293,-2.52806 -0.0946,-0.10099 -0.18927,-0.20199 -0.28391,-0.30298 0,0 -0.15176,1.85108 -0.15176,1.85108 v 0 c 0.0934,0.0998 0.18685,0.1995 0.28028,0.29925 0.65614,0.75752 1.02743,1.7009 1.56592,2.54138 z" />
    <path
       style="fill:#00ffff"
       id="path24"
       d="m 782.72636,291.21522 c -0.55964,-0.68826 -1.00194,-1.4599 -1.55601,-2.1521 -0.0923,-0.27516 -0.65033,-0.53837 -0.54719,-0.83995 0,0 -0.26866,1.86237 -0.26866,1.86237 v 0 c 0.18508,0.29936 0.45963,0.52997 0.64807,0.82817 0.54041,0.6993 1.01007,1.44885 1.53139,2.16218 z" />
    <path
       style="fill:#00ffff"
       id="path25"
       d="m 782.93314,290.38962 c 0.49161,0.6188 0.93862,1.27303 1.39451,1.91895 0,0 0.17562,-1.83288 0.17562,-1.83288 v 0 c -0.46404,-0.65477 -0.91496,-1.32166 -1.42405,-1.9422 z"
       inkscape:export-filename="racerEffect_material.png"
       inkscape:export-xdpi="96"
       inkscape:export-ydpi="96" />
  </g>
</svg>
