<?xml version="1.0" encoding="UTF-8" standalone="no"?>
<!-- Created with Inkscape (http://www.inkscape.org/) -->

<svg
   width="210mm"
   height="297mm"
   viewBox="0 0 210 297"
   version="1.1"
   id="svg1"
   inkscape:export-filename="RingChaser effect2.png"
   inkscape:export-xdpi="96"
   inkscape:export-ydpi="96"
   inkscape:version="1.4.2 (f4327f4, 2025-05-13)"
   sodipodi:docname="rysunek-4.svg"
   xmlns:inkscape="http://www.inkscape.org/namespaces/inkscape"
   xmlns:sodipodi="http://sodipodi.sourceforge.net/DTD/sodipodi-0.dtd"
   xmlns="http://www.w3.org/2000/svg"
   xmlns:svg="http://www.w3.org/2000/svg">
  <sodipodi:namedview
     id="namedview1"
     pagecolor="#ffffff"
     bordercolor="#000000"
     borderopacity="0.25"
     inkscape:showpageshadow="2"
     inkscape:pageopacity="0.0"
     inkscape:pagecheckerboard="0"
     inkscape:deskcolor="#d1d1d1"
     inkscape:document-units="mm"
     inkscape:zoom="1.9477379"
     inkscape:cx="344.5022"
     inkscape:cy="418.17741"
     inkscape:window-width="1920"
     inkscape:window-height="991"
     inkscape:window-x="-9"
     inkscape:window-y="-9"
     inkscape:window-maximized="1"
     inkscape:current-layer="layer1" />
  <defs
     id="defs1" />
  <g
     inkscape:label="Warstwa 1"
     inkscape:groupmode="layer"
     id="layer1">
    <path
       style="fill:#aaccff;stroke-width:0.264583"
       id="path1"
       d="m 97.650204,44.752487 c -2.106248,0.463717 -4.042011,1.513909 -5.700959,2.879286 -0.534382,0.439814 -1.025964,0.929193 -1.538946,1.39379 -2.167091,2.236595 -3.935963,4.809059 -5.0908,7.71021 -0.757865,1.903881 -0.882902,2.720099 -1.366375,4.705247 -0.79656,5.014259 0.03698,9.424384 1.730555,14.145775 0.349922,0.975522 0.763151,1.927162 1.144728,2.890743 1.52954,3.346344 3.201318,6.643917 5.130305,9.780582 0.686522,1.116335 1.421519,2.20214 2.12693,3.306635 1.421278,2.178968 2.593993,4.510868 3.281267,7.029109 0.546759,2.003386 0.636852,3.018816 0.955389,5.103726 0.782407,5.90223 0.497737,11.84882 -0.04379,17.75376 -0.703466,6.20865 -2.07681,12.30945 -3.313075,18.42577 -1.306018,6.11691 -2.598952,12.23604 -3.497877,18.4279 -0.436229,2.88941 -0.464031,5.81133 -0.478385,8.72612 1.11e-4,0.69543 2.2e-4,1.39085 2.65e-4,2.08627 0,0 0.07341,-0.46352 0.07341,-0.46352 v 0 c -9e-5,-0.38581 -1.8e-4,-0.77163 -2.65e-4,-1.15744 0.01402,-2.9173 0.04012,-5.84172 0.470609,-8.73437 0.890186,-6.20465 2.17864,-12.33636 3.490299,-18.46373 1.239229,-6.10912 2.617335,-12.20231 3.320891,-18.40456 0.569638,-6.19687 0.826199,-12.44628 0.04124,-18.63987 -0.320871,-2.09211 -0.410869,-3.10554 -0.961374,-5.115581 -0.69051,-2.521257 -1.868223,-4.854414 -3.292192,-7.035933 -0.705493,-1.101354 -1.439828,-2.184447 -2.126083,-3.297893 -1.929297,-3.130275 -3.602805,-6.420948 -5.125061,-9.764977 -1.448006,-3.668927 -2.82107,-7.381399 -3.124959,-11.353054 -0.143328,-1.873216 0.05851,-2.903199 0.257373,-4.795972 0.479692,-1.982399 0.604322,-2.801496 1.357802,-4.703046 1.14845,-2.898343 2.909798,-5.468657 5.072986,-7.702388 0.511532,-0.463 1.001702,-0.950757 1.534596,-1.389002 1.650453,-1.35731 3.578781,-2.405335 5.678443,-2.849787 z" />
    <path
       style="fill:#aaccff;stroke-width:0.264583"
       id="path2"
       d="m 105.277,52.268649 c -3.41335,2.607246 -5.883272,6.168829 -8.212708,9.720614 -2.00727,3.234576 -3.848651,6.695747 -4.415806,10.511742 -0.109286,0.735309 -0.132612,1.480849 -0.198919,2.221272 -0.0065,2.297703 -0.05153,4.72285 0.184941,6.989244 0.121856,1.167908 0.387514,2.317242 0.637299,3.464616 0.861915,3.959151 2.095281,7.823808 3.294552,11.689111 1.60822,4.950822 3.215349,9.902222 4.709971,14.888712 1.07953,3.68342 1.77381,7.46497 2.53697,11.22286 1.25918,5.36583 1.65181,10.85208 1.89594,16.33999 0.24282,6.30469 -0.41328,12.5924 -1.30989,18.82297 -0.84936,5.67474 -2.55839,11.14707 -4.524196,16.51899 0,0 0.223426,1.8185 0.223426,1.8185 v 0 c 1.94952,-5.40988 3.69034,-10.90381 4.54917,-16.60886 0.41495,-2.85464 0.58427,-3.78471 0.8652,-6.65962 0.50748,-5.19327 0.6165,-10.41208 0.4631,-15.62648 -0.24594,-5.51328 -0.65176,-11.02134 -1.91323,-16.41231 -0.75139,-3.77115 -1.4486,-7.56358 -2.55048,-11.25228 -1.4945,-4.93804 -3.122354,-9.83323 -4.731179,-14.734904 -1.202341,-3.872807 -2.437495,-7.746198 -3.26875,-11.7211 -0.244075,-1.16713 -0.401447,-2.350741 -0.609227,-3.524877 -0.05446,-0.307769 -0.160747,-0.608597 -0.177482,-0.920697 -0.0443,-0.826262 -0.0033,-1.654895 -0.005,-2.482339 0.05947,-0.736069 0.07585,-1.476891 0.178408,-2.2082 0.536501,-3.825605 2.345143,-7.31312 4.341709,-10.561018 2.28863,-3.50317 4.716341,-7.050685 8.158261,-9.529659 z" />
    <path
       style="fill:#aaccff;stroke-width:0.264583"
       id="path3"
       d="m 116.3117,171.72686 c -1.39054,-1.19655 -2.63882,-2.55047 -3.8447,-3.92985 -1.25557,-1.53555 -2.46023,-3.10678 -3.37027,-4.87758 -0.66073,-1.2857 -0.84042,-1.8312 -1.37118,-3.16737 -1.01326,-2.44154 -1.58784,-5.00449 -1.8214,-7.62824 -0.17295,-2.11566 -0.33938,-4.2386 -0.36029,-6.36257 -2e-4,-0.0204 0.0435,-0.0209 0.0455,-0.0413 0.0588,-0.61585 0.0901,-1.23401 0.13515,-1.85102 0.16532,-2.70067 0.64656,-5.33646 1.77398,-7.80156 1.23975,-2.39609 2.52399,-4.76888 3.74442,-7.17492 1.39375,-2.59679 2.51011,-5.32119 3.45486,-8.10878 1.2518,-4.00841 1.92604,-8.17065 2.49976,-12.3215 0.59876,-4.75902 0.7769,-9.554966 0.87557,-14.345988 0.14319,-4.716142 0.0569,-9.421516 -0.58091,-14.098251 -0.36663,-3.487103 -1.27036,-6.865165 -2.27887,-10.209969 -0.46605,-1.504963 -1.15779,-2.921815 -1.71431,-4.391456 -0.42239,-1.115439 -0.74635,-2.185215 -1.11086,-3.324299 -1.05696,-3.333219 -1.9339,-6.727201 -3.22739,-9.980425 -0.12887,-0.251944 -0.25775,-0.503886 -0.38663,-0.75583 0,0 -0.21262,1.925008 -0.21262,1.925008 v 0 c 0.12384,0.244684 0.24768,0.489371 0.37151,0.734057 1.29567,3.230991 2.1853,6.599666 3.22149,9.918486 0.39983,1.25831 0.66296,2.148758 1.12075,3.366923 0.55238,1.469861 1.2257,2.893745 1.69587,4.395319 1.01516,3.31951 1.89419,6.679504 2.25741,10.14362 0.45797,3.473503 0.72157,6.95648 0.56057,10.460495 -0.0915,4.799907 -0.25721,9.60529 -0.84977,14.37401 -0.56653,4.12308 -1.24176,8.25528 -2.47573,12.23886 -0.93756,2.78606 -2.03872,5.51479 -3.42756,8.11012 -1.21354,2.3992 -2.50627,4.75723 -3.75505,7.13806 -1.16946,2.4788 -1.66645,5.13912 -1.83352,7.86944 -0.31094,3.9928 -0.19801,7.99843 0.17528,11.98383 0.25451,2.61575 0.86039,5.16434 1.88088,7.595 0.52619,1.30008 0.74462,1.92685 1.39552,3.17956 0.92394,1.7782 2.14749,3.35713 3.40534,4.90715 1.21583,1.39881 2.4865,2.75015 3.85187,4.00514 z" />
    <path
       style="fill:#aaccff;stroke-width:0.264583"
       id="path4"
       d="m 109.27225,175.47283 c -0.0238,-1.32433 0.15523,-2.67331 -0.22354,-3.9592 -0.28128,-0.95489 -0.70173,-1.88813 -1.06066,-2.81506 -1.05014,-2.56685 -2.03248,-5.15776 -2.94586,-7.77671 -0.81746,-2.62605 -1.38936,-5.31828 -1.74609,-8.04336 -0.31301,-2.78558 -0.40727,-5.58628 -0.48005,-8.38631 0.004,-1.77621 -0.10744,-3.55548 -0.0705,-5.33186 0.003,-0.16533 0.006,0.6574 0.0364,0.49477 0.0747,-0.40556 0.0497,-0.82379 0.0997,-1.23314 0.0532,-0.43637 0.13961,-0.86804 0.20941,-1.30206 0.93983,-4.51357 2.16966,-8.96516 3.40238,-13.40651 1.20747,-4.23396 2.6628,-8.3937 3.90836,-12.61515 0.73907,-3.0942 1.14514,-6.26134 1.63012,-9.40386 0.72803,-4.115307 1.11591,-8.271488 1.31995,-12.441946 0.17443,-5.360812 0.14322,-10.725954 0.14462,-16.088904 0.10902,-4.709369 -0.23684,-9.399971 -0.97702,-14.045827 0,0 -0.26189,1.842209 -0.26189,1.842209 v 0 c 0.55661,3.463803 0.89938,6.947757 0.96267,10.459087 -0.002,5.336003 0.0212,10.673998 -0.14854,16.007935 -0.19659,4.171955 -0.56737,8.331941 -1.29937,12.448193 -0.48444,3.122993 -0.92278,6.262113 -1.61371,9.346243 -1.21677,4.26614 -2.66958,8.46503 -3.89551,12.72922 -1.23101,4.40522 -2.46456,8.81807 -3.43817,13.28786 -0.63905,3.67817 -0.29919,7.3769 -0.29461,11.08906 0.0732,2.8229 0.16267,5.64824 0.49044,8.45551 0.37981,2.71224 0.96631,5.39247 1.78976,8.00633 0.91991,2.62792 1.90271,5.23041 2.94765,7.81094 0.16962,0.44349 0.59181,1.53654 0.75515,2.00391 0.0964,0.2757 0.19731,0.5506 0.27086,0.83323 0.0643,0.24693 0.0532,0.99152 0.14173,0.75223 0.14356,-0.38796 0.0158,-0.82736 0.0389,-1.24038 0.0107,-0.19045 -0.001,0.38149 -0.002,0.57223 z" />
    <path
       style="fill:#aaccff;stroke-width:0.264583"
       id="path5"
       d="m 110.55771,170.09865 c 1.75328,-3.58938 3.33157,-7.26173 4.82918,-10.96428 2.00428,-4.95895 3.47986,-10.10468 4.50368,-15.34912 0.9103,-5.02659 0.71288,-10.15133 0.0701,-15.19401 -0.64832,-4.22118 -2.06281,-8.24386 -3.59294,-12.20961 -0.67961,-1.76051 -1.46485,-3.4851 -1.99115,-5.30148 -0.28593,-0.98683 -0.64608,-2.57195 -0.87464,-3.53814 -1.03363,-4.73052 -1.62346,-9.594354 -1.43626,-14.44182 0.0861,-6.345089 1.69002,-12.503067 3.45894,-18.552194 1.25481,-4.406 2.85073,-8.70848 3.95343,-13.157554 0.51027,-2.043168 0.55393,-4.071956 0.45323,-6.175478 -0.0171,-0.357148 -0.27616,-1.686245 -0.34302,-2.045949 0,0 -0.26647,1.90436 -0.26647,1.90436 v 0 c 0.0597,0.333261 0.12726,0.665215 0.17915,0.999786 0.0536,0.345332 -0.10157,0.784117 0.1371,1.039376 0.19267,0.206065 0.11339,-1.118732 0.0445,-0.845164 -0.0829,0.329134 -0.0495,0.677177 -0.0871,1.014495 -0.11234,1.006948 -0.17288,1.209177 -0.36886,2.232805 -1.06721,4.500457 -2.65326,8.849688 -3.92693,13.292447 -1.77855,6.041866 -3.39926,12.196035 -3.50961,18.535401 -0.0142,1.557946 -0.0507,3.115847 -0.0426,4.673835 0.0233,4.490784 0.52031,8.977534 1.50749,13.358844 0.25426,1.08451 0.56697,2.4944 0.88505,3.58114 0.53018,1.81144 1.32067,3.52985 2.00323,5.28526 1.53093,3.94113 2.93719,7.94348 3.55564,12.14738 0.52456,4.27084 0.10801,0.55141 0.46309,4.70692 0.0106,0.12363 0.0617,0.24324 0.0604,0.36732 -0.022,2.18118 -0.21213,4.36542 -0.58282,6.51478 -1.00221,5.25607 -2.45239,10.4179 -4.46396,15.38281 -1.48039,3.64736 -3.04375,7.2649 -4.82487,10.7768 z" />
    <path
       style="fill:#aaccff;stroke-width:0.264583"
       id="path6"
       d="m 119.35529,162.37428 c -1.76351,-3.17126 -3.12206,-6.54942 -4.45234,-9.91928 -1.80838,-5.10031 -3.91647,-10.08472 -5.93763,-15.10232 -0.95446,-2.2936 -1.82272,-4.63005 -2.24433,-7.08713 -0.23921,-1.39408 -0.26808,-2.11477 -0.38746,-3.5345 -0.27793,-3.78892 0.45581,-7.57927 1.25894,-11.26735 0.6469,-2.72973 1.4743,-5.4147 2.12908,-8.14144 0.72971,-3.56501 0.62602,-7.22682 0.34,-10.835149 -0.55317,-4.652002 -1.63997,-9.218311 -2.60482,-13.797005 -1.0252,-4.851855 -1.79122,-9.754917 -2.62577,-14.642478 -0.1244,-0.777811 -0.2488,-1.555625 -0.3732,-2.333437 0,0 -0.25617,1.803448 -0.25617,1.803448 v 0 c 0.12559,0.773425 0.25119,1.546849 0.37679,2.320274 0.83525,4.88715 1.59464,9.791224 2.63311,14.640282 0.96892,4.592413 2.04699,9.177107 2.57325,13.847064 0.0456,0.621818 0.0657,1.246039 0.13675,1.865461 0.008,0.0671 0.0537,-0.262727 0.055,-0.195155 0.0354,1.820795 -0.18061,3.644015 -0.51012,5.431255 -0.64289,2.75257 -1.47712,5.46054 -2.12261,8.21368 -1.07455,4.9076 -1.74086,9.89339 -1.28559,14.9315 0.12712,1.43669 0.15603,2.13979 0.40866,3.54866 0.4378,2.44159 1.32643,4.75741 2.28361,7.03576 2.04206,5.00631 4.13314,9.99442 5.93693,15.09368 1.3475,3.42076 2.71493,6.85507 4.48093,10.08536 z" />
    <path
       style="fill:#aaccff;stroke-width:0.264583"
       id="path7"
       d="m 95.4407,168.22038 c -0.01611,-4.21287 -0.02897,-8.42543 0.02737,-12.63799 0.241165,-6.73604 0.47947,-13.47146 0.608666,-20.21073 0.25177,-7.06183 -0.24566,-14.11164 -1.054478,-21.12142 -0.754031,-5.81153 -1.609474,-11.60898 -2.439821,-17.409841 -0.599596,-3.991841 -0.849249,-8.018381 -0.957554,-12.049345 0.106622,-3.319473 0.707311,-6.596306 1.649953,-9.778105 0.276328,-0.932712 0.608121,-1.848086 0.91218,-2.77213 0.868727,-2.426891 1.976382,-4.749186 3.125052,-7.051685 0,0 -0.202301,-1.81592 -0.202301,-1.81592 v 0 c -1.15013,2.321729 -2.256335,4.66394 -3.144581,7.102041 -0.308512,0.918778 -0.645043,1.828622 -0.925536,2.756339 -1.317109,4.356314 -1.913641,8.843057 -1.700358,13.395287 0.113199,4.015383 0.377471,8.024985 0.986375,11.999699 0.838083,5.78332 1.693733,11.56443 2.44181,17.36034 0.667123,5.85682 1.198661,11.75512 1.038731,17.65547 -0.126479,6.73706 -0.356153,13.4705 -0.610566,20.20383 -0.06343,4.13966 -0.05349,8.27933 -0.06455,12.41941 z" />
    <path
       style="fill:#aaccff;stroke-width:0.264583"
       id="path8"
       d="m 122.4208,172.88417 c 1.29132,-3.05976 1.73239,-6.41233 2.29404,-9.66285 1.08594,-6.06753 1.70141,-12.19938 2.12369,-18.34423 0.39462,-6.43695 0.4467,-12.88734 0.47937,-19.33413 0.0148,-5.315 -5.3e-4,-10.63626 -0.28061,-15.94574 -0.15148,-2.87065 -0.36469,-5.05732 -0.61225,-7.92506 -0.35633,-5.27796 -1.34255,-10.477993 -2.09887,-15.704496 -0.21419,-1.480111 -0.39653,-2.964659 -0.59479,-4.446987 0,0 -0.23782,1.641541 -0.23782,1.641541 v 0 c 0.19753,1.49683 0.37794,2.996018 0.59259,4.490487 0.75035,5.224241 1.73733,10.421192 2.08793,15.696705 0.58005,6.80546 0.95743,13.63021 0.87072,20.4635 -0.034,6.44805 -0.081,12.89972 -0.46754,19.33838 -0.41715,6.126 -1.02819,12.23939 -2.11344,18.28767 -0.55467,3.18998 -1.00657,6.46289 -2.24664,9.476 z" />
    <path
       style="fill:#aaccff;stroke-width:0.264583"
       id="path9"
       d="m 106.96695,168.55692 c 0.21483,-3.15582 1.02823,-6.24046 1.77335,-9.30331 1.19356,-4.62707 2.44402,-9.23803 3.46302,-13.90765 0.86731,-3.82579 0.88413,-7.73015 0.67604,-11.62743 -0.33397,-4.60764 -0.38864,-9.22742 -0.53356,-13.84292 -0.21163,-6.37099 -0.48332,-12.74 -0.75416,-19.10877 -0.36251,-6.34668 -0.58403,-12.699022 -0.70852,-19.054422 0.0661,-3.450966 0.48643,-6.870488 1.36974,-10.205704 0.42488,-1.198565 0.93083,-2.36841 1.42991,-3.538082 0.37901,-1.146614 0.83549,-2.261545 1.26948,-3.387646 0,0 -0.23681,-1.947156 -0.23681,-1.947156 v 0 c -0.41798,1.133597 -0.90886,2.237925 -1.25932,3.396533 -0.51354,1.180999 -1.01536,2.369907 -1.4536,3.58072 -1.18766,4.523745 -1.51728,9.185233 -1.39376,13.856393 0.13072,6.348397 0.35906,12.693454 0.71579,19.033504 0.27238,6.37882 0.54295,12.75806 0.74727,19.13943 0.13901,4.64179 0.19508,9.28743 0.52521,13.92146 0.029,0.59607 0.0411,1.1932 0.087,1.7882 0.006,0.0764 0.037,-0.30387 0.0333,-0.22736 -0.10248,2.14288 -0.33,4.28136 -0.76549,6.3838 -0.99765,4.68664 -2.2333,9.31411 -3.45224,13.94707 -0.75355,3.01641 -1.54924,6.04847 -1.84175,9.15202 z" />
    <path
       style="fill:#aaccff;stroke-width:0.264583"
       id="path10"
       d="m 111.51464,61.63247 c -0.92566,2.262425 -1.14268,4.742529 -1.38244,7.152838 -0.42435,4.747569 -0.34517,9.512853 -0.099,14.266598 0.1418,3.801477 0.57388,7.583805 1.11016,11.347381 0.63956,4.229277 0.74546,8.509753 0.83985,12.778123 0.0558,6.08187 0.0805,12.16246 0.30282,18.24111 0.21977,5.13563 0.58201,10.26241 0.75918,15.4001 0.21158,4.53123 -0.23614,9.06818 -0.83451,13.55488 -0.48534,2.78197 -0.67818,5.6302 -1.51076,8.33952 -0.70706,1.92158 -1.55671,3.78012 -2.248,5.70876 -0.79737,2.09347 -1.25671,4.28136 -1.66967,6.47482 -0.19196,0.97561 -0.30775,1.96297 -0.40415,2.95173 0,0 0.28726,1.92937 0.28726,1.92937 v 0 c 0.088,-0.99317 0.19491,-1.98536 0.3839,-2.96535 0.4134,-2.19881 0.82616,-4.40389 1.63568,-6.50145 0.68632,-1.92326 1.53373,-3.77253 2.25957,-5.67933 0.86985,-2.74107 1.03301,-5.63495 1.52711,-8.45564 0.76381,-5.68371 1.14563,-11.4149 0.85134,-17.15135 -0.17935,-5.1229 -0.54813,-10.23459 -0.76637,-15.35561 -0.22054,-6.08976 -0.24118,-12.18139 -0.29507,-18.27431 -0.0947,-4.29051 -0.20366,-8.592798 -0.85205,-12.843321 -0.52702,-3.752781 -0.95965,-7.52261 -1.09865,-11.312343 -0.1791,-3.539243 -0.28904,-7.070859 0.0955,-10.605322 0.23146,-2.371318 0.4439,-4.809694 1.32581,-7.044383 z" />
    <path
       style="fill:#aaccff;stroke-width:0.264583"
       id="path11"
       d="m 113.82449,69.736858 c -0.45829,-1.692489 -1.08399,-3.336809 -1.57251,-5.025348 -0.87065,-2.771724 -1.06727,-5.675426 -1.36496,-8.546152 -0.20659,-1.815949 -0.37167,-3.635553 -0.43912,-5.462106 -0.005,-0.230881 -0.0242,-0.923436 -0.0159,-0.692642 0.0141,0.392596 -0.10074,0.808826 0.0334,1.178081 0.0941,0.259085 0.0537,-0.548963 0.0962,-0.821314 0.12838,-0.823281 0.33026,-1.60967 0.59807,-2.396472 0.48199,-1.16032 1.43334,-1.963595 2.42011,-2.688349 0,0 -0.1236,-1.954916 -0.1236,-1.954916 v 0 c -1.0126,0.737351 -2.00643,1.548243 -2.53478,2.717337 -0.77622,2.116751 -0.92844,4.331313 -0.77044,6.582552 0.0767,1.80938 0.25273,3.611071 0.45937,5.410012 0.29925,2.880733 0.52402,5.78929 1.3959,8.570048 0.49246,1.700305 1.14734,3.355943 1.53404,5.080621 z" />
    <path
       style="fill:#aaccff;stroke-width:0.264583"
       id="path12"
       d="m 113.11415,64.002128 c -0.0117,-2.531128 0.21795,-5.053785 0.58726,-7.555441 0.31002,-2.207546 1.00799,-3.91718 2.40562,-5.627976 0.43403,-0.659699 1.0719,-1.273128 1.36525,-2.02206 0.23387,-0.597072 0.19319,-0.89825 0.23262,-1.554567 0.16671,-2.409145 -0.18808,-4.743667 -0.71971,-7.076437 0,0 -0.25903,1.907336 -0.25903,1.907336 v 0 c 0.22729,1.027004 0.43671,2.060173 0.56365,3.10552 0.0423,0.348626 -0.12447,0.774063 0.0935,1.049396 0.18573,0.234577 0.018,-0.598136 0.027,-0.897205 -0.0119,0.522483 0.0247,1.014042 -0.14531,1.516724 -0.25539,0.755105 -0.92163,1.372812 -1.32896,2.036884 -1.43718,1.729825 -2.1812,3.442581 -2.50209,5.694445 -0.37566,2.474896 -0.615,4.97038 -0.62831,7.4755 z" />
    <path
       style="fill:#aaccff;stroke-width:0.264583"
       id="path13"
       d="m 109.62674,63.513271 c -2.63907,-1.094346 -3.34103,-4.198988 -4.0547,-6.6592 -0.1798,-0.835118 -0.38016,-1.666074 -0.5394,-2.505356 -0.51796,-2.729875 -0.82359,-5.490323 -0.98054,-8.261667 -0.0137,-0.240961 0.0222,0.482185 0.0332,0.723278 0,0 -0.29463,-1.889874 -0.29463,-1.889874 v 0 c -0.008,1.009529 -0.0385,2.019152 -0.0228,3.028585 0.0153,0.983319 0.18845,2.513764 0.30163,3.442756 0.29736,2.44085 0.673,4.875593 1.26934,7.263614 0.75064,2.559 1.50685,5.720614 4.25514,6.836428 z" />
    <path
       style="fill:#aaccff;stroke-width:0.264583"
       id="path14"
       d="m 117.06521,63.141645 c 0.45777,-2.918246 0.78144,-5.889599 0.77597,-8.848405 -0.002,-1.321758 -0.0513,-2.643021 -0.077,-3.96453 -0.14648,-2.775177 -0.75439,-5.526487 -1.80754,-8.101065 -0.21466,-0.524764 -0.48296,-1.025954 -0.72444,-1.53893 0,0 -0.21153,1.860216 -0.21153,1.860216 v 0 c 0.23625,0.505791 0.49931,0.999908 0.70877,1.51737 1.04015,2.569644 1.61914,5.312642 1.75375,8.078147 0.22496,0.983117 0.11482,0.375332 0.0161,2.419747 -0.10711,2.218094 -0.31935,4.439303 -0.68465,6.629828 z" />
  </g>
</svg>
