<?xml version="1.0" encoding="UTF-8" standalone="no"?>
<!-- Created with Inkscape (http://www.inkscape.org/) -->

<svg
   width="61.653564mm"
   height="53.80954mm"
   viewBox="0 0 61.653564 53.80954"
   version="1.1"
   id="svg1"
   xmlns="http://www.w3.org/2000/svg"
   xmlns:svg="http://www.w3.org/2000/svg">
  <defs
     id="defs1" />
  <g
     id="layer1"
     transform="translate(-56.782955,-71.316709)">
    <path
       id="rect1"
       style="stroke-width:0.264583"
       d="m 56.732322,71.188053 c 0,0 7.096836,-0.500532 10.651792,-0.543366 3.370447,-0.04061 6.759642,-0.112002 10.108425,0.271683 3.600204,0.412491 7.109066,0.596362 10.651791,1.358413 4.012767,0.863158 7.987118,1.767257 12.0102,2.580986 3.53516,0.715038 7.14941,1.991344 10.6518,2.852668 3.7998,0.934465 7.48993,1.45864 11.19515,2.716827 3.76039,1.276918 7.75251,2.910599 11.19516,4.890288 3.1888,1.833713 6.34406,4.06778 8.47833,7.06375 1.65144,2.318192 2.42667,5.202775 3.02247,7.985988 0.67218,3.13999 0.38488,6.41073 0.57732,9.61609 0.19244,3.20536 0.38489,6.41073 0.57733,9.61609 0.19244,3.20536 0.38489,6.41073 0.57733,9.61609 0.19244,3.20536 0.38488,6.41072 0.57732,9.61608 0.19244,3.20536 0.38489,6.41073 0.57733,9.61609 0.19244,3.20536 0.38488,6.41073 0.57732,9.61609 0.19244,3.20536 0.57733,9.61609 0.57733,9.61609 l -10.69216,-73.232421 -19.38601,-8.84363 -26.753033,-6.93522 z" />
    <path
       id="rect2"
       style="fill:#008000;stroke-width:0.264583"
       d="M 56.732322,71.188053 118.66055,85.601859 79.760772,135.89465 c 0.881855,-16.74993 -1.2248,-42.825563 -23.02845,-50.178763 z" />
    <path
       id="rect3"
       style="fill:#ff0000;stroke-width:0.264583"
       d="m 66.290577,78.244616 c -1.069784,-5.361829 14.806707,4.346922 14.806707,4.346922 0,0 14.518191,13.507898 16.165119,23.093032 1.646928,9.58514 -8.40256,18.44606 -8.40256,18.44606 l -9.099071,11.76402 c 0,0 -0.809195,-4.33683 0.09386,-9.63885 0.90306,-5.30202 3.518375,-11.56921 3.427058,-15.85805 -0.145985,-6.8564 -11.082669,-21.25847 -11.082669,-21.25847 0,0 -4.741168,-5.044174 -5.908449,-10.894664 z" />
    <path
       style="fill:#de8787;stroke-width:0.513416"
       d="m 301.90856,472.8305 c -0.0519,-3.41457 -1.1831,-15.97179 -2.12524,-23.59141 -7.30201,-59.05608 -30.85443,-99.33165 -69.5162,-118.87545 -3.38854,-1.71294 -8.29586,-3.91101 -10.90515,-4.88461 l -4.74417,-1.77018 -0.005,-27.0827 c -0.003,-14.89548 0.1489,-27.0827 0.33692,-27.0827 0.59066,0 234.04452,44.74965 232.67841,54.19228 -0.0201,0.13874 -7.73331,10.41006 -17.41256,22.92064 -9.67924,12.51058 -28.8065,37.2419 -42.50501,54.95848 -13.69851,17.71658 -24.9744,32.14394 -25.05753,32.06081 -0.0831,-0.0831 0.49793,-1.75596 1.29127,-3.71737 3.2717,-8.08884 5.05725,-18.36034 4.46757,-25.69999 -1.65146,-20.5554 -17.53765,-46.16005 -50.07204,-80.70389 -9.54713,-10.1368 -10.8772,-11.26943 -18.15241,-15.45785 -20.3761,-11.73074 -36.64217,-18.52988 -44.33033,-18.52988 -2.86691,0 -3.47821,0.1751 -4.62902,1.32591 -1.21589,1.21589 -1.2978,1.56515 -0.98706,4.20901 1.18504,10.08286 9.55795,26.33861 20.55709,39.91095 16.1468,19.92429 35.29511,52.24886 40.83716,68.93787 4.2002,12.64824 3.81066,19.49632 -2.40094,42.20817 -1.27428,4.65925 -3.43942,12.86108 -4.81141,18.22627 -1.37198,5.3652 -2.50348,9.16574 -2.51442,8.44564 z"
       id="path3"
       transform="scale(0.26458333)" />
  </g>
</svg>
