<?xml version="1.0" encoding="UTF-8" standalone="no"?>
<!-- Created with Inkscape (http://www.inkscape.org/) -->

<svg
   width="128"
   height="128"
   viewBox="0 0 128 128"
   version="1.1"
   id="svg1"
   inkscape:export-filename="Starter_P1.svg"
   inkscape:export-xdpi="96"
   inkscape:export-ydpi="96"
   xmlns:inkscape="http://www.inkscape.org/namespaces/inkscape"
   xmlns:sodipodi="http://sodipodi.sourceforge.net/DTD/sodipodi-0.dtd"
   xmlns:xlink="http://www.w3.org/1999/xlink"
   xmlns="http://www.w3.org/2000/svg"
   xmlns:svg="http://www.w3.org/2000/svg">
  <sodipodi:namedview
     id="namedview1"
     pagecolor="#ffffff"
     bordercolor="#000000"
     borderopacity="0.25"
     inkscape:showpageshadow="2"
     inkscape:pageopacity="0.0"
     inkscape:pagecheckerboard="0"
     inkscape:deskcolor="#d1d1d1"
     inkscape:document-units="px">
    <inkscape:page
       x="0"
       y="0"
       width="128"
       height="128"
       id="page2"
       margin="0"
       bleed="0" />
  </sodipodi:namedview>
  <defs
     id="defs1">
    <linearGradient
       id="linearGradient446"
       inkscape:collect="always">
      <stop
         style="stop-color:#008000;stop-opacity:1;"
         offset="0"
         id="stop446" />
      <stop
         style="stop-color:#008000;stop-opacity:0;"
         offset="1"
         id="stop447" />
    </linearGradient>
    <radialGradient
       inkscape:collect="always"
       xlink:href="#linearGradient446"
       id="radialGradient447"
       cx="-63.307991"
       cy="25.477922"
       fx="-63.307991"
       fy="25.477922"
       r="23.692005"
       gradientTransform="matrix(0.83000619,0.00911471,-0.02576818,2.3465083,126.74756,-4.0071997)"
       gradientUnits="userSpaceOnUse" />
  </defs>
  <g
     inkscape:label="Warstwa 1"
     inkscape:groupmode="layer"
     id="layer1">
    <path
       id="rect1"
       style="fill:#88aa00"
       d="m 50.322581,14.838711 c 0.151231,-5.055011 11.290322,-4.032259 11.290322,-4.032259 0,0 34.529865,-0.588672 35.161291,12.096774 1.04225,20.939034 0,76.774193 0,76.774193 l -5.645162,-0.32258 c 0,0 -15.111417,-17.009108 -12.802633,-33.373381 C 79.987474,54.208034 76.455405,49.720982 73.15739,43.624213 72.043718,41.565459 58.643355,13.379467 58.706146,28.282295 c 0.0314,7.451414 12.640558,26.601014 11.678704,34.626873 -0.961854,8.02586 -3.236661,15.57314 -4.586109,13.368304 6.623774,-11.187079 -11.077838,-27.154821 -15.47616,-35.954891 -0.732127,-21.148527 -0.509153,-8.465077 0,-25.48387 z"
       sodipodi:nodetypes="sssccssssccs"
       inkscape:export-filename="Wyrzutnia_cz 1.svg"
       inkscape:export-xdpi="96"
       inkscape:export-ydpi="96" />
    <path
       style="fill:#000000"
       d="M 93.870968,90 85.483871,75.483871"
       id="path443" />
    <path
       style="fill:#000000"
       d="M 91.290323,83.870968 82.258065,68.709677"
       id="path444" />
  </g>
  <g
     inkscape:groupmode="layer"
     id="layer2"
     inkscape:label="Deco">
    <path
       id="rect445"
       d="m 91.935231,46.048261 c 0,0 -4.53179,2.776772 -8.064452,-2.943359 -3.532662,-5.720131 8.064452,20.28125 8.064452,20.28125 0,0 -2.596306,6.002578 -8.064452,-2.943359 -5.468146,-8.945937 8.064452,20.283203 8.064452,20.283203 0,0 -4.701687,2.882743 -6.986327,-0.541016 5.181394,13.030718 7.188487,19.467778 7.100376,19.2475 h 4.839844 l -0.114049,-70.722109 -4.839844,-0.08064 c 0,0 -6.312169,0.699797 -9.061703,-2.678354 3.812567,4.174671 6.385673,13.12751 9.061703,20.096884 z"
       sodipodi:nodetypes="cscscccccccc" />
    <path
       id="rect1-8"
       style="fill:url(#radialGradient447)"
       d="m 50.322177,14.839136 c 0.151231,-5.0550107 11.290322,-4.032259 11.290322,-4.032259 0,0 34.529865,-0.588672 35.161291,12.096774 1.04225,20.939034 0,76.774193 0,76.774193 l -5.645162,-0.32258 c 0,0 -15.111417,-17.009108 -12.802633,-33.373381 C 79.98707,54.208459 76.455001,49.721407 73.156986,43.624638 72.043314,41.565884 58.642951,13.379892 58.705742,28.28272 c 0.0314,7.451414 12.640558,26.601014 11.678704,34.626873 -0.961854,8.02586 -3.236661,15.57314 -4.586109,13.368304 6.623774,-11.187079 -11.077838,-27.154821 -15.47616,-35.954891 -0.732127,-21.148527 -0.509153,-8.465077 0,-25.48387 z"
       sodipodi:nodetypes="sssccssssccs"
       inkscape:export-filename="Wyrzutnia_cz 1.svg"
       inkscape:export-xdpi="96"
       inkscape:export-ydpi="96" />
  </g>
</svg>
