<?xml version="1.0" encoding="UTF-8" standalone="no"?>
<!-- Created with Inkscape (http://www.inkscape.org/) -->

<svg
   width="47.384014"
   height="88.955849"
   viewBox="0 0 47.384014 88.955849"
   version="1.1"
   id="svg1"
   xmlns:inkscape="http://www.inkscape.org/namespaces/inkscape"
   xmlns:sodipodi="http://sodipodi.sourceforge.net/DTD/sodipodi-0.dtd"
   xmlns="http://www.w3.org/2000/svg"
   xmlns:svg="http://www.w3.org/2000/svg">
  <sodipodi:namedview
     id="namedview1"
     pagecolor="#ffffff"
     bordercolor="#000000"
     borderopacity="0.25"
     inkscape:showpageshadow="2"
     inkscape:pageopacity="0.0"
     inkscape:pagecheckerboard="0"
     inkscape:deskcolor="#d1d1d1"
     inkscape:document-units="px">
    <inkscape:page
       x="0"
       y="0"
       width="47.384014"
       height="88.955849"
       id="page2"
       margin="0"
       bleed="0" />
  </sodipodi:namedview>
  <defs
     id="defs1" />
  <g
     inkscape:label="Warstwa 1"
     inkscape:groupmode="layer"
     id="layer1"
     transform="translate(-49.853405,-10.721575)">
    <path
       id="rect1"
       style="fill:#88aa00"
       d="m 50.322581,14.838711 c 0.151231,-5.055011 11.290322,-4.032259 11.290322,-4.032259 0,0 34.529865,-0.588672 35.161291,12.096774 1.04225,20.939034 0,76.774193 0,76.774193 l -5.645162,-0.32258 c 0,0 -15.111417,-17.009108 -12.802633,-33.373381 C 79.987474,54.208034 76.455405,49.720982 73.15739,43.624213 72.043718,41.565459 58.643355,13.379467 58.706146,28.282295 c 0.0314,7.451414 12.640558,26.601014 11.678704,34.626873 -0.961854,8.02586 -3.236661,15.57314 -4.586109,13.368304 6.623774,-11.187079 -11.077838,-27.154821 -15.47616,-35.954891 -0.732127,-21.148527 -0.509153,-8.465077 0,-25.48387 z"
       sodipodi:nodetypes="sssccssssccs"
       inkscape:export-filename="Wurzytnia_cz1.svg"
       inkscape:export-xdpi="96"
       inkscape:export-ydpi="96" />
  </g>
</svg>
