<?xml version="1.0" encoding="UTF-8" standalone="no"?>
<!-- Created with Inkscape (http://www.inkscape.org/) -->

<svg
   width="60.932396"
   height="94.677422"
   viewBox="0 0 60.932396 94.677422"
   version="1.1"
   id="svg1"
   xmlns="http://www.w3.org/2000/svg"
   xmlns:svg="http://www.w3.org/2000/svg">
  <defs
     id="defs1" />
  <g
     id="layer1"
     transform="translate(-39.530823,-5.3225808)">
    <path
       id="rect1"
       style="fill:#88aa00"
       d="m 40,14.51613 c 0.151231,-5.0550106 13.548387,-9.1935491 13.548387,-9.1935491 0,0 45.820187,5.2177801 46.451613,17.9032261 C 101.04225,44.164841 100,100 100,100 H 85 C 85,100 82.146648,82.990892 84.455432,66.626619 86.116507,54.853195 82.584438,50.366143 79.286423,44.269374 78.172751,42.21062 58.643355,13.379467 58.706146,28.282295 c 0.0314,7.451414 12.640558,26.601014 11.678704,34.626873 -0.961854,8.02586 -3.236661,15.57314 -4.586109,13.368304 C 72.422515,65.090393 44.398322,48.80007 40,40 39.267873,18.851473 39.490847,31.534923 40,14.51613 Z" />
  </g>
</svg>
